<?xml version="1.0" encoding="UTF-8"?>
<svg width="2383px" height="1756px" viewBox="0 0 2383 1756" version="1.1" xmlns="http://www.w3.org/2000/svg" xmlns:xlink="http://www.w3.org/1999/xlink">
    <!-- Generator: Sketch 54.1 (76490) - https://sketchapp.com -->
    <title>Untitled</title>
    <desc>Created with Sketch.</desc>
    <g id="Page-1" stroke="none" stroke-width="1" fill="none" fill-rule="evenodd">
        <g id="Sump-Thing-(4)" transform="translate(-0.000000, 0.000000)" fill-rule="nonzero">
            <path d="M380.474689,0.0708980686 C473.960424,0.0708980686 567.446159,0.0187967684 660.931895,0.135022746 C672.981773,0.151053915 685.13584,0.1590695 697.057485,1.65397604 C733.587811,6.23889045 759.086106,37.4956628 758.481007,75.9945158 C757.90396,112.641769 731.992915,141.020946 695.438546,144.764224 C689.788287,145.341346 683.997774,145.305276 678.335493,144.824341 C660.186541,143.273326 644.225562,149.120695 629.863486,159.420721 C593.429335,185.551527 557.195548,211.970894 520.969775,238.394269 C495.659822,256.85416 470.353876,275.326075 445.324432,294.162699 C431.118639,304.851481 430.689861,308.073746 438.508056,323.73219 C452.345179,351.45409 466.446782,379.04774 479.951301,406.929951 C486.419044,420.279907 495.73596,427.045061 511.095848,426.439884 C529.373033,425.718482 541.406882,434.984498 547.217431,452.398355 C561.106649,494.023286 574.971823,535.652225 588.808946,577.293187 C589.890911,580.55553 590.864679,583.873982 591.59801,587.228504 C594.59946,600.915115 589.398016,611.094908 576.35834,616.164765 C571.874199,617.908155 566.985323,618.918118 562.188613,619.499248 C548.187192,621.20256 546.997031,622.36482 546.9249,636.728747 C546.9249,637.017309 546.9249,637.30587 546.9249,637.590423 C546.9249,690.813905 547.097213,744.037387 546.800675,797.256861 C546.736558,808.943584 551.821791,816.253797 560.096816,824.361561 C579.600226,843.474722 601.716381,849.418278 628.380794,847.141852 C650.052141,845.290252 672.040063,847.242047 693.88773,847.350257 C704.587156,847.402359 707.917202,844.468655 708.514286,833.852013 C708.963101,825.840436 708.121573,817.760727 708.566381,809.74915 C710.301531,778.612611 728.594745,759.451356 760.917431,758.509525 C792.458698,757.591741 824.136213,758.685868 855.661451,760.525445 C879.104014,761.896109 896.920362,781.99118 898.294857,805.77342 C898.923999,816.662592 898.891941,827.587833 899.244582,838.497044 C899.577185,848.813102 901.837289,851.053457 912.236169,851.065481 C951.920221,851.113574 991.60828,850.877115 1031.29233,851.173691 C1051.94984,851.325987 1069.78622,858.475889 1081.46342,876.362666 C1084.89766,881.624897 1087.39018,888.514292 1087.54647,894.72637 C1088.21168,920.889239 1088.0073,947.080162 1087.79492,973.259061 C1087.24191,1041.60795 1086.49656,1109.95283 1085.90749,1178.30172 C1085.8594,1183.96473 1087.31004,1189.77203 1086.48053,1195.27072 C1083.57125,1214.5482 1065.23396,1230.65952 1045.65841,1230.99217 C1005.42136,1231.6775 965.172282,1231.92999 924.931219,1232.35081 C920.903907,1232.3949 916.872587,1232.25062 912.849283,1232.3949 C902.470439,1232.75961 900.086109,1234.83965 899.553142,1245.04349 C898.90797,1257.37146 899.340756,1269.78359 898.162617,1282.05144 C895.630019,1308.35859 873.730257,1328.4737 847.049815,1328.91055 C820.016733,1329.35542 792.967622,1329.41153 765.93454,1328.90654 C732.674152,1328.28534 709.792607,1304.72353 708.967109,1271.03402 C708.746708,1262.12069 708.987145,1253.19534 708.842883,1244.28201 C708.710643,1236.2023 704.498996,1232.32276 696.356212,1232.33879 C665.576327,1232.40692 634.78442,1231.84182 604.032587,1232.78365 C597.352458,1232.98805 589.658489,1237.10806 584.437008,1241.705 C559.29536,1263.84805 532.823297,1284.1395 502.772736,1298.96032 C449.095278,1325.43179 392.316188,1337.32291 333.072624,1325.31556 C270.835625,1312.69903 216.537039,1282.86503 171.543347,1238.08195 C112.027288,1178.84678 85.034279,1089.81769 98.2342452,1007.46958 C103.692155,973.42338 111.193775,939.236912 126.07279,907.936054 C141.364554,875.781536 164.815131,856.488024 189.528001,832.296989 C202.287167,819.808709 212.18113,804.927776 212.064919,786.451853 C211.748345,736.394527 211.956723,686.337201 211.940694,636.279875 C211.936686,621.827776 210.662373,620.485165 196.548748,619.579404 C173.334599,618.092513 161.998016,603.219596 169.034793,580.727865 C181.537493,540.76216 195.330536,501.201242 208.594619,461.476005 C209.776765,457.941132 211.039057,454.434314 212.277305,450.91948 C217.755251,435.369246 229.732998,425.778599 245.962465,426.491986 C263.10559,427.245451 273.15183,419.578544 280.244708,404.669556 C293.552871,376.695166 307.814765,349.177664 321.587772,321.42771 C328.01945,308.470517 327.326191,304.446694 315.67704,295.870018 C252.718731,249.507877 189.704321,203.221883 126.533626,157.15231 C114.652054,148.487463 101.251724,144.483679 86.052127,145.682009 C55.7170498,148.074661 29.3491756,139.774523 12.0898391,112.906283 C-3.14582322,89.1841604 -3.94327108,63.890983 9.48110258,39.2791304 C23.3863493,13.7815556 45.9913917,0.347435739 74.9840315,0.235217554 C176.816922,-0.169569471 278.645805,0.0708980686 380.474689,0.0708980686 Z M611.610345,1037.25549 C610.820912,1015.18858 614.415438,990.572724 602.54188,967.010913 C592.255203,946.595219 586.079991,924.247769 572.551429,905.206747 C553.833444,878.863528 528.747898,860.34352 501.85507,843.346473 C463.894147,819.35182 422.511011,808.883467 378.026243,807.532841 C352.139242,806.747313 328.412163,814.859085 304.120057,821.580153 C237.839717,839.911795 179.209266,896.229293 158.555767,962.173507 C151.783471,983.791539 146.794412,1009.40534 146.934667,1032.12151 C147.359438,1100.3702 168.309476,1167.73318 218.019731,1216.35571 C242.408011,1240.21009 271.737262,1257.08691 304.16013,1266.86993 C342.497737,1278.43642 381.624777,1282.47627 421.837789,1274.27633 C478.184093,1262.78999 525.193444,1236.90366 561.114664,1191.49538 C595.757562,1147.70223 616.262792,1099.26004 611.614352,1042.23317 C611.550236,1041.38351 611.610345,1040.51382 611.610345,1037.25549 Z M758.456964,1037.21942 C758.713429,1040.87853 758.901771,1042.31332 758.897764,1043.7441 C758.765524,1108.73046 758.577182,1173.71681 758.525087,1238.70717 C758.52108,1245.86108 758.661335,1253.11518 759.819437,1260.14084 C761.402311,1269.75954 766.503573,1274.70115 775.932693,1274.9336 C795.760693,1275.42656 815.616745,1275.4947 835.440738,1274.90956 C846.220309,1274.59294 850.968931,1268.4009 851.07312,1257.35142 C851.137237,1250.45401 851.325579,1243.55259 851.325579,1236.65518 C851.3376,1147.00487 851.277491,1057.34655 852.311368,967.700253 C852.647979,939.008468 853.237049,910.32069 853.693878,881.628905 C853.810089,874.39484 854.210817,856.327712 853.597704,841.062031 C852.904445,823.788446 850.460007,809.600861 836.398476,809.424519 C816.029494,809.172028 795.64849,809.087864 775.279507,809.444558 C762.889011,809.664986 758.709422,814.506399 758.633284,827.211101 C758.517073,847.053681 758.472993,866.896261 758.464978,886.73884 C758.444942,937.645818 758.456964,988.544781 758.456964,1037.21942 Z M899.104327,1042.97862 C899.104327,1086.13052 899.076276,1129.28242 899.120356,1172.43031 C899.132378,1184.5659 902.185922,1187.64389 914.516309,1187.53969 C950.425507,1187.24311 986.334705,1186.80626 1022.2439,1186.40147 C1025.11311,1186.36941 1027.98633,1186.19307 1030.84752,1185.98065 C1038.0486,1185.44361 1043.10578,1181.98489 1043.47445,1174.47027 C1043.96334,1164.47083 1043.64676,1154.43131 1043.64676,1144.41183 C1043.65077,1070.19153 1043.68283,995.97122 1043.62272,921.750914 C1043.60669,901.379306 1039.9801,897.872487 1019.45484,897.55988 C1017.15466,897.523809 1014.85449,897.543848 1012.5503,897.543848 C980.624337,897.543848 948.694364,897.543848 916.768398,897.543848 C900.799405,897.543848 899.104327,899.191051 899.096312,915.250275 C899.072269,957.829061 899.092305,1000.40384 899.104327,1042.97862 Z M497.499162,698.492835 C497.499162,677.203442 497.503169,655.914049 497.499162,634.624656 C497.495154,622.140383 495.138876,619.835903 482.307579,619.831895 C445.220243,619.823879 408.132906,619.827887 371.049576,619.827887 C339.119603,619.831895 307.18963,619.787809 275.259657,619.871973 C264.544202,619.900027 261.390476,623.134316 261.382462,633.734927 C261.354411,673.724678 261.32636,713.71443 261.430549,753.704182 C261.446578,759.431317 261.438563,765.358842 262.925263,770.789401 C263.622529,773.334349 268.262954,777.001479 270.406847,776.580661 C292.779467,772.172089 313.112384,763.883974 336.017972,761.5314 C361.568362,758.910304 387.311101,758.71793 412.893549,761.026419 C432.39696,762.785839 451.319316,768.328616 470.309796,772.801312 C483.617958,775.935406 497.106449,781.430089 497.278761,763.222689 C497.491147,741.648743 497.342878,720.070789 497.499162,698.492835 Z M383.748633,99.9050048 C477.322528,99.9050048 570.968555,98.8028619 664.530428,99.8689347 C681.344957,100.061309 705.941615,98.6385424 708.798803,76.3792639 C710.798434,60.8129985 697.342002,52.2202918 683.312529,52.1281125 C579.331739,51.4588112 475.350949,50.3486528 371.370158,50.3205982 C277.704096,50.2965515 183.945866,50.4248008 90.3038466,52.5970242 C78.1337502,52.8775697 60.5177661,53.3104113 53.0001169,64.8127752 C38.3174587,87.280459 74.7996968,99.7847711 90.4601303,99.8088178 C188.225636,99.9771451 285.987135,99.900997 383.748633,99.9050048 Z M378.274694,567.08534 C396.091042,567.08534 413.903383,567.08534 431.719731,567.08534 C458.728769,567.08534 485.741815,567.145457 512.750853,567.061294 C532.190147,567.001177 535.263728,562.336106 528.956276,544.244932 C523.398185,528.317965 518.156668,512.270765 513.231726,496.135393 C508.038297,479.122314 505.874368,477.222621 487.921773,476.986161 C486.487168,476.966122 485.048556,476.986161 483.609944,476.986161 C412.925607,476.986161 342.237264,476.982153 271.552927,476.986161 C268.968235,476.986161 266.379534,476.978145 263.798849,477.090364 C254.650238,477.495151 249.184314,481.895707 246.884138,491.09359 C244.046987,502.451673 240.42441,513.621391 236.926058,524.811147 C234.02479,534.097202 230.394198,543.174851 227.869615,552.553085 C225.529366,561.245987 228.947572,565.710668 237.779608,566.756701 C241.189799,567.157481 244.664107,567.077325 248.110364,567.077325 C291.497139,567.089348 334.88792,567.08534 378.274694,567.08534 Z M710.041058,1042.12896 C710.041058,1025.44452 710.041058,1008.76009 710.041058,992.075646 C710.041058,966.76243 710.105175,941.445206 710.009,916.131989 C709.972935,906.220719 706.350358,901.142846 698.776606,901.038643 C680.371189,900.786152 661.961764,900.810199 643.556347,901.030628 C636.267112,901.118799 631.811022,905.375075 633.85874,912.617155 C642.602615,943.537273 655.085279,972.653884 659.954119,1004.67214 C666.898728,1050.3249 661.424789,1099.15985 645.183301,1142.39992 C639.877668,1156.51937 621.832905,1183.87256 648.024459,1184.16913 C661.829524,1184.32544 675.634589,1184.2052 689.439654,1184.2052 C706.747078,1184.2052 710.017015,1181.01901 710.033044,1163.80955 C710.061095,1123.24668 710.041058,1082.68782 710.041058,1042.12896 Z M558.914669,146.848276 C536.678296,141.750364 512.498395,144.319359 489.83725,144.415546 C465.849698,144.515741 441.862145,144.668037 417.874593,144.80831 C406.810505,144.872435 403.793026,147.962443 403.720895,159.400682 C403.620713,175.491968 403.688837,191.583254 403.700859,207.678548 C403.708873,220.319125 403.376269,232.975733 403.889201,245.612302 C404.80286,267.967768 440.467614,237.740998 446.366323,233.484723 C478.668973,210.179411 510.025905,185.519464 542.184293,161.989716 C547.938741,157.773518 554.350382,152.407084 558.914669,146.848276 Z M206.755279,148.415323 C206.598995,148.58365 206.470762,148.764001 206.374588,148.952367 C202.555654,156.430908 226.879818,169.035415 231.516236,172.245656 C256.63384,189.659514 281.671299,207.790766 305.714953,226.647429 C314.230414,233.324411 354.439418,274.448368 354.888233,242.546341 C355.108633,226.823772 354.655811,211.149296 355.212823,195.418711 C355.645608,183.198953 358.182214,167.917241 354.058727,156.074214 C347.679144,137.762611 323.699606,144.3915 309.221319,144.688076 C281.667291,145.257183 254.149329,143.910565 226.579272,145.205081 C222.884564,145.385432 209.720663,145.18905 206.755279,148.415323 Z M379.557023,424.488089 C392.492509,424.488089 405.427995,424.688479 418.359473,424.423965 C428.217372,424.219567 431.379112,419.14971 426.939051,410.324551 C415.606475,387.792743 404.249856,365.264942 392.292145,343.065781 C384.846627,329.238897 373.990917,329.3431 366.541391,343.222085 C354.743971,365.192802 343.435439,387.428034 332.223082,409.707351 C327.314169,419.462318 330.487931,424.259645 341.620143,424.444004 C354.263098,424.652409 366.91006,424.492097 379.557023,424.488089 Z" id="Shape" fill="#3F51B5"></path>
            <path d="M998.08615,1329.86763 C1024.46285,1329.86763 1050.04997,1329.70741 1075.62507,1330.12398 C1078.11805,1330.16404 1081.52486,1333.27232 1082.87155,1335.81983 C1102.08594,1372.17788 1123.77327,1406.91371 1150.14195,1438.55327 C1205.25206,1504.67631 1268.54652,1561.00987 1345.07543,1601.68988 C1398.03324,1629.84064 1452.89886,1653.2048 1511.49192,1666.37494 C1572.67817,1680.12988 1634.78225,1683.45846 1697.49555,1680.7267 C1788.14467,1676.78126 1872.55732,1651.54652 1953.18642,1611.17494 C2026.06403,1574.6847 2088.71721,1525.0764 2143.23012,1464.99367 C2217.08969,1383.5936 2265.3421,1288.16622 2292.38413,1182.36054 C2307.74682,1122.2618 2311.26986,1060.3846 2308.04742,998.347189 C2305.58651,950.977971 2300.25185,904.013309 2286.63264,858.310385 C2264.2399,783.150904 2231.83515,712.593761 2185.21,649.486874 C2126.11192,569.504754 2053.79143,504.102708 1964.88579,457.818984 C1913.20253,430.913941 1859.82388,408.475046 1802.91418,395.857675 C1742.85017,382.539338 1681.83627,378.477746 1620.31735,381.954533 C1564.79843,385.090851 1510.31357,393.157958 1457.56818,411.643409 C1382.12144,438.083812 1311.47229,473.456514 1249.64476,524.546855 C1181.93748,580.491881 1124.71515,645.437299 1084.44269,724.225776 C1081.83748,729.324796 1077.99781,734.019259 1076.47477,739.39466 C1072.14211,754.687716 1062.63913,758.549032 1047.36461,757.307323 C1027.94581,755.72915 1008.30256,756.926799 987,756.926799 C1027.6933,658.47525 1085.75731,573.277949 1163.27219,501.855614 C1297.91721,377.796808 1457.27961,311.705813 1640.31331,307.223642 C2012.06005,298.119107 2324.5524,568.026719 2375.67454,929.10786 C2429.3057,1307.90539 2182.93746,1656.04471 1817.4392,1738.00956 C1459.7285,1818.224 1125.92958,1620.96442 998.08615,1329.86763 Z" id="Path" fill="#3F51B5"></path>
            <path d="M1825.78282,923.483021 C1826.72529,934.44248 1824.58369,941.915749 1816.55069,948.351175 C1799.18128,962.271891 1790.81942,981.778526 1786.16324,1002.98418 C1783.90133,1013.29448 1782.28511,1023.74904 1780.12345,1035.52595 C1795.41944,1035.52595 1809.42406,1035.6061 1823.42466,1035.4939 C1831.44162,1035.42978 1841.4959,1037.87012 1846.86594,1033.98722 C1851.64644,1030.52908 1850.7922,1019.76197 1853.23058,1012.48905 C1857.50977,999.746428 1861.805,986.951711 1867.20311,974.66189 C1873.16269,961.089792 1885.23425,954.345818 1898.76562,949.813772 C1904.1116,948.022591 1909.40945,948.575573 1911.17005,953.848936 C1912.31705,957.275019 1911.25026,963.32977 1908.77178,965.774109 C1889.41317,984.868011 1885.62727,1011.37908 1873.19477,1035.70227 C1894.65488,1035.70227 1914.37042,1035.85855 1934.07393,1035.47386 C1936.14735,1035.43379 1938.76219,1032.60076 1940.10169,1030.43291 C1947.64541,1018.21121 1955.42575,1006.08168 1962.05508,993.363094 C1968.26331,981.457956 1977.27086,978.977552 1989.67529,982.56392 C1992.27007,1004.14223 1974.9127,1017.55004 1967.10829,1035.8305 C1969.88355,1036.16709 1972.02916,1036.64394 1974.17076,1036.64795 C1990.86239,1036.70805 2007.55804,1036.44759 2024.24166,1036.80022 C2030.16514,1036.92444 2032.60753,1034.94492 2034.44433,1029.19471 C2042.68588,1003.40492 2052.70006,978.384499 2069.38768,956.59381 C2086.90147,933.721199 2109.31206,917.824975 2136.97237,909.766667 C2152.94613,905.114407 2169.1926,901.383783 2186.2492,897 C2191.32246,913.761761 2191.98419,930.447386 2189.87066,947.297304 C2185.31074,983.681905 2168.37447,1014.25619 2144.53614,1041.32826 C2140.18076,1046.27304 2139.1621,1049.35851 2144.86099,1053.69021 C2148.3822,1056.36696 2151.04917,1060.15769 2155.57701,1065.03835 C2140.13263,1067.47869 2126.71355,1070.23558 2113.15009,1071.60201 C2090.56705,1073.87805 2067.91584,1075.64919 2045.25259,1076.93548 C2002.33238,1079.37581 1959.48035,1077.29211 1916.66442,1074.00227 C1845.80316,1068.5566 1775.86031,1057.09225 1706.41075,1042.33004 C1699.80548,1040.92755 1693.30849,1039.00012 1687,1035.60209 C1705.26375,1035.60209 1723.5315,1035.33762 1741.78723,1035.74635 C1748.12781,1035.8866 1750.64238,1033.82293 1752.36288,1027.668 C1758.13798,1006.97927 1763.87297,986.206387 1771.22419,966.0506 C1777.82946,947.942449 1792.60809,935.476315 1807.21829,923.935825 C1811.11247,920.882404 1819.46631,923.483021 1825.78282,923.483021 Z" id="Path" fill="#414F66"></path>
            <path d="M1199,982.782869 C1209.0514,970.86714 1217.97708,957.726093 1229.33448,947.228521 C1302.02586,880.028794 1387.95752,856.426331 1485.01423,871.254704 C1500.3297,873.592854 1507.86124,881.872799 1507.93736,896.757416 C1508.12565,932.203293 1507.84121,967.653188 1507.71702,1003.10308 C1507.71301,1004.19181 1507.35647,1005.28054 1507.052,1007 C1477.4867,1004.4208 1448.20183,1001.86571 1416.77368,999.125817 C1422.85499,993.043412 1427.86267,988.154187 1432.73413,983.136404 C1444.91279,970.593955 1440.10943,952.286478 1422.95114,948.887724 C1418.11974,947.931573 1411.52563,951.398624 1406.98668,954.604541 C1401.19781,958.690278 1396.71494,964.616003 1391.5951,969.673961 C1386.79574,974.418558 1381.89624,975.350604 1376.74034,970.023478 C1372.14129,965.270846 1367.382,960.670877 1362.65475,956.046803 C1352.16668,945.782242 1343.61358,945.464864 1334.36741,954.958076 C1324.86485,964.716439 1325.14929,972.936122 1335.42904,983.260944 C1338.66199,986.507036 1342.01112,989.632605 1346.46194,993.927249 C1296.93005,990.878011 1248.93651,987.921175 1200.94298,984.964339 C1200.29398,984.237182 1199.64499,983.510026 1199,982.782869 Z" id="Path" fill="#414F66"></path>
            <path d="M1635,875.342519 C1632.98213,887.434755 1628.03934,896.926898 1619.08879,905.313902 C1590.36709,932.2351 1576.46175,966.651152 1571.82664,1005.31094 C1571.46303,1008.35309 1570.96355,1011.37916 1570.4441,1015 C1561.11395,1013.79037 1552.69882,1012.70131 1544,1011.57206 C1548.52323,970.991337 1557.96127,932.870053 1585.10863,901.54839 C1598.07495,886.59083 1611.84443,872.617848 1635,875.342519 Z" id="Path" fill="#414F66"></path>
            <path d="M1679.72054,1035 C1669.22789,1032.49114 1659.88692,1030.25794 1650,1027.8969 C1658.99826,983.688302 1671.0132,941.704915 1706.24906,910.096526 C1715.05205,902.198423 1722.28492,899.549743 1732.96487,904.52351 C1733.23585,913.144706 1732.10011,920.419589 1723.83112,926.551904 C1698.64557,945.236489 1687.15267,971.931036 1683.00423,1002.24505 C1681.58156,1012.68397 1680.8802,1023.22276 1679.72054,1035 Z" id="Path" fill="#414F66"></path>
            <path d="M614.985751,1037.69389 C614.020706,1133.48662 559.189332,1228.16525 467.361896,1261.14748 C413.243293,1280.58416 360.2419,1283.99058 304.821888,1267.25901 C272.422804,1257.47656 243.115068,1240.60072 218.744678,1216.74771 C189.020491,1187.65282 168.450216,1149.62507 154.923569,1110.5794 C125.976223,1026.99771 156.21697,918.380774 226.048587,863.869927 C278.096948,823.241271 349.518288,799.047624 415.49373,811.106376 C482.189952,823.297377 549.102409,860.715976 582.75485,921.262211 C592.721642,939.196047 601.278909,959.013437 607.521669,978.570336 C613.139752,996.163529 615.193977,1016.9267 614.985751,1037.69389 Z" id="Path"></path>
            <path d="M759.005255,1037.95521 C759.005255,989.292894 758.989162,938.40682 759.013301,887.516739 C759.021348,867.679183 759.065603,847.841628 759.182277,828.004073 C759.254695,815.306595 763.454941,810.462401 775.894751,810.242028 C796.344802,809.881418 816.806921,809.96556 837.256972,810.221994 C847.588612,810.350211 852.203251,814.397056 852.525109,824.810671 C853.152732,845.000823 857.835765,865.231042 852.408435,885.445235 C851.760696,887.865328 852.259576,890.597951 852.259576,893.182322 C852.255553,1007.90037 852.263599,1122.62242 852.247506,1237.34047 C852.247506,1244.23613 852.058415,1251.1358 851.994043,1258.03147 C851.889439,1269.07815 847.121918,1275.26862 836.299444,1275.58516 C816.400576,1276.16614 796.461475,1276.10203 776.55456,1275.6092 C767.087913,1275.3728 761.966348,1270.43244 760.377174,1260.82018 C759.214462,1253.7923 759.07365,1246.54003 759.077673,1239.39194 C759.129975,1174.42204 759.319066,1109.45214 759.451833,1044.47824 C759.451833,1043.04782 759.262741,1041.61339 759.005255,1037.95521 Z" id="Path"></path>
            <path d="M899.011898,1043.43844 C899.003865,1000.86422 898.987799,958.289986 899.015915,915.711749 C899.027964,899.652732 900.722926,898.005551 916.728663,898.005551 C948.728088,898.005551 980.731529,898.005551 1012.73095,898.005551 C1015.03642,898.005551 1017.34591,897.985512 1019.65138,898.021582 C1040.22387,898.334186 1043.8588,901.836951 1043.87487,922.212305 C1043.9311,996.431654 1043.90298,1070.651 1043.89896,1144.87035 C1043.89896,1154.89371 1044.21627,1164.9331 1043.72626,1174.92841 C1043.35674,1182.44292 1038.28792,1185.9016 1031.07028,1186.43864 C1028.19848,1186.65105 1025.32267,1186.82739 1022.44686,1186.85945 C986.455036,1187.26824 950.463214,1187.70509 914.471392,1187.99765 C902.112633,1188.09784 899.052063,1185.02391 899.040014,1172.88847 C898.991816,1129.74113 899.019931,1086.58979 899.011898,1043.43844 Z" id="Path"></path>
            <path d="M497.838027,698.776023 C497.838027,720.382244 497.99021,741.988464 497.781959,763.590672 C497.661815,776.279912 494.778339,778.519189 482.615681,775.754203 C463.140209,771.323804 443.929055,764.806623 424.221303,762.50715 C397.669302,759.413094 370.732838,754.304491 343.984601,762.735894 C340.320184,763.89165 336.014996,763.121146 332.010169,763.048911 C322.630865,762.880363 313.932381,763.309759 304.793367,767.828444 C294.512977,772.912969 282.494492,774.706799 271.044692,776.966142 C268.898105,777.391525 264.264521,773.715578 263.567681,771.167296 C262.08189,765.729623 262.0899,759.794333 262.073881,754.059696 C261.969755,714.017558 261.997789,673.975421 262.025823,633.933283 C262.033832,623.318786 265.185631,620.080261 275.894538,620.05217 C307.804997,619.967896 339.715455,620.012039 371.625914,620.008026 C408.690585,620.004013 445.755256,620 482.815922,620.012039 C495.639377,620.016052 497.994215,622.327565 497.99822,634.824179 C498.002225,656.14146 497.99822,677.458742 497.99822,698.776023 C497.942153,698.776023 497.89009,698.776023 497.838027,698.776023 Z" id="Path"></path>
            <path d="M384.321087,100.985702 C286.534684,100.981662 188.748281,101.058426 90.9618777,100.892778 C77.734499,100.868537 65.6454765,96.723299 56.3582534,86.5904956 C46.5178853,75.8637839 48.0570712,65.2057555 61.272425,59.8969422 C70.3752665,56.2405678 80.4441075,53.2104233 90.1201354,53.0932577 C184.058574,51.9620037 278.00102,50.9761967 371.943467,51.0004378 C475.950746,51.0287192 579.958026,52.1478526 683.965305,52.8225648 C698.335048,52.9154892 707.798636,59.6343297 709.730635,70.8741459 C711.630568,81.9321534 703.281286,94.6143184 690.951766,98.5535063 C686.438424,99.9958551 681.544294,100.880657 676.82252,100.888738 C579.316698,101.018024 481.818893,100.985702 384.321087,100.985702 Z" id="Path"></path>
            <path d="M379.240084,566.986131 C335.819095,566.986131 292.394095,566.994135 248.973106,566.974124 C245.524132,566.974124 242.047084,567.054169 238.634203,566.653943 C229.799213,565.613353 226.3743,561.154825 228.716395,552.469901 C231.24297,543.104591 234.876424,534.039451 237.77998,524.766193 C241.27708,513.59586 244.902514,502.441536 247.745913,491.095103 C250.043893,481.909895 255.518138,477.515403 264.673963,477.111174 C267.256683,476.999111 269.847425,477.007115 272.434156,477.007115 C343.174234,477.003113 413.918323,477.007115 484.658401,477.007115 C486.098147,477.007115 487.533883,476.991106 488.97363,477.007115 C506.940382,477.243249 509.106018,479.140325 514.303542,496.129957 C519.232368,512.243093 524.478018,528.268179 530.040493,544.173197 C536.356929,562.235437 533.276914,566.898081 513.82229,566.958115 C486.791952,567.03816 459.757604,566.978126 432.727267,566.982129 C414.900879,566.986131 397.070482,566.986131 379.240084,566.986131 Z" id="Path"></path>
            <path d="M710.978983,1042.079 C710.978983,1082.58095 711.00312,1123.08691 710.966914,1163.58886 C710.954846,1180.77818 707.672212,1183.9559 690.29356,1183.9559 C676.43489,1183.9559 662.572198,1184.07596 648.717551,1183.91988 C634.854858,1183.76379 632.075078,1180.34594 636.367444,1167.12277 C640.374189,1154.78409 646.150981,1142.9977 649.912333,1130.59898 C654.176539,1116.53936 657.555721,1102.15956 660.411935,1087.73975 C662.837705,1075.49711 664.39052,1063.03836 665.528982,1050.60362 C666.297344,1042.21907 666.715719,1033.54637 665.444503,1025.28189 C662.725065,1007.60831 659.15681,990.03879 655.206385,972.589332 C653.540931,965.233345 649.912333,958.333605 647.402083,951.145709 C642.948804,938.394797 638.189789,925.719927 634.500848,912.744894 C632.445179,905.512975 636.918573,901.262671 644.236111,901.174623 C662.712997,900.950502 681.197928,900.930491 699.670791,901.182627 C707.269928,901.286684 710.906572,906.357432 710.9468,916.254797 C711.043348,941.532498 710.978983,966.810199 710.978983,992.091903 C710.978983,1008.75694 710.978983,1025.41797 710.978983,1042.079 Z" id="Path"></path>
            <path d="M560,147.400414 C552.868258,153.76011 548.155212,158.721234 542.716156,162.696545 C502.356434,192.194794 461.852313,221.500688 421.392314,250.862687 C420.229094,251.704234 419.069885,252.561811 417.842488,253.303175 C409.37906,258.44463 404.698102,256.300687 404.28897,246.3023 C403.771537,233.679085 404.10847,221.023811 404.100448,208.384567 C404.088414,192.294978 404.024237,176.201381 404.120503,160.111791 C404.192703,148.674758 407.213064,145.585076 418.28772,145.520958 C459.11273,145.280516 499.937739,145.020037 540.76676,145 C546.282027,145 551.793283,146.334454 560,147.400414 Z" id="Path"></path>
            <path d="M206.988158,147.762475 C213.924708,146.927325 220.857258,145.421645 227.80181,145.365433 C265.916834,145.044222 304.03586,145.064297 342.154885,145.000055 C352.099674,144.983995 355.855972,148.477171 355.895975,158.302231 C356.003984,186.496579 356.119993,214.690928 355.727962,242.877247 C355.671958,246.99277 353.875815,252.497534 350.923581,254.645637 C349.047432,256.010786 342.97895,253.152003 339.762695,250.827234 C299.787522,221.93425 259.964362,192.820433 220.173204,163.674495 C214.924788,159.827986 210.048401,155.467538 205,151.343984 C205.660052,150.151486 206.324105,148.958988 206.988158,147.762475 Z" id="Path"></path>
            <path d="M379.616606,424.929153 C366.959659,424.929153 354.298702,425.089798 341.645765,424.880959 C330.504764,424.696217 327.328496,419.888898 332.241285,410.113616 C343.462494,387.787898 354.783965,365.506358 366.586688,343.489884 C374.046105,329.581994 384.906375,329.477574 392.357772,343.333254 C404.324923,365.578649 415.690509,388.153367 427.032031,410.732101 C431.471588,419.575639 428.311362,424.656055 418.445681,424.860879 C405.512013,425.12996 392.562304,424.925137 379.616606,424.929153 Z" id="Path"></path>
            <path d="M1105,1170.19663 C1105.04007,1110.83216 1105.02404,1051.4677 1105.03606,992.099222 C1105.04007,980.8354 1105.08013,980.695153 1116.26229,981.115894 C1146.64765,982.253896 1177.025,983.520125 1208.05941,984.758304 C1204.35739,996.20645 1199.76193,1006.60475 1197.69056,1017.4879 C1189.07257,1062.7195 1201.2804,1102.48147 1233.94546,1134.4377 C1249.51875,1149.67251 1268.49358,1161.52537 1286.3586,1174.30386 C1318.30248,1197.16008 1354.90995,1209.46974 1393.08796,1214.60678 C1435.78933,1220.35289 1478.97948,1223.33414 1522.06147,1225.14132 C1570.58829,1227.1769 1619.24333,1227.6297 1667.81022,1226.79623 C1713.82897,1226.00684 1759.89981,1222.14405 1804.01947,1208.0272 C1825.35413,1201.19919 1845.95559,1191.28574 1865.77579,1180.6911 C1907.3353,1158.472 1948.36194,1135.2311 1989.16822,1111.6456 C2003.28716,1103.48724 2016.09997,1093.0689 2029.50575,1083.67237 C2032.23017,1081.76101 2034.91854,1079.80556 2039.12938,1076.78825 C2042.43876,1083.60024 2046.30504,1089.26221 2048.03585,1095.51721 C2057.13463,1128.35099 2079.93166,1150.22549 2106.66709,1168.49764 C2128.29422,1183.27965 2153.1546,1188.10815 2179.12879,1188.12418 C2186.42865,1188.12819 2189.52167,1186.18076 2189.54972,1177.99836 C2189.63386,1153.05447 2189.93434,1128.07451 2180.26664,1104.56514 C2174.41714,1090.3401 2154.34053,1079.64128 2148.05031,1066.78665 C2174.81378,1058.0032 2215.30756,1045.99406 2243.76178,1036.65763 C2243.76178,1045.26077 2244.35474,1055.05401 2243.66963,1064.75909 C2237.73599,1148.50646 2215.50388,1227.66977 2175.61508,1301.61991 C2152.32926,1344.78787 2123.7268,1384.19722 2090.29249,1420.19257 C2039.68628,1474.67244 1980.60231,1517.40363 1913.44923,1548.97519 C1865.03058,1571.73925 1814.26411,1587.01814 1761.42228,1595.8016 C1720.003,1602.68571 1678.29926,1604.34864 1636.63958,1601.99249 C1570.64438,1598.26193 1507.09716,1582.82676 1446.24631,1556.74086 C1376.90167,1527.01254 1315.71428,1485.19896 1262.77228,1431.55656 C1224.4941,1392.77231 1192.63034,1349.0674 1166.4398,1301.23523 C1162.24499,1293.57375 1157.53333,1286.1607 1152.63337,1278.92397 C1133.48227,1250.65822 1119.05884,1220.15254 1108.60185,1187.69142" id="Path" fill="#417CA9"></path>
            <path d="M1659.40544,1233 C1623.17799,1233 1586.95053,1233 1550.72308,1233 C1549.58158,1232.41787 1548.46812,1231.38207 1547.29458,1231.31382 C1507.19005,1228.91705 1467.02143,1227.33525 1426.997,1224.01108 C1404.52356,1222.14424 1382.09018,1218.37845 1359.98522,1213.79365 C1314.86211,1204.43939 1276.73617,1180.51175 1240.64489,1153.09534 C1219.89371,1137.32959 1204.085,1117.25206 1194.4684,1092.90287 C1190.30695,1082.36026 1188.09606,1071.04682 1185,1060.08266 C1185,1050.86089 1185,1041.63911 1185,1032.41734 C1186.69822,1025.86132 1187.71155,1019.02027 1190.25889,1012.80952 C1194.29217,1002.98152 1199.3508,993.579085 1203.97686,984 C1206.27587,984 1208.57889,984 1210.8779,984 C1228.00033,985.22047 1245.11475,986.521234 1262.24118,987.637322 C1281.61456,988.897939 1301.00396,989.985924 1321.25449,991.20238 C1319.4361,1012.09089 1320.53354,1031.67462 1333.17009,1048.00242 C1345.8467,1064.38643 1363.51785,1072.81731 1383.96463,1074.14617 C1402.29665,1075.33854 1418.7502,1069.30043 1432.7966,1057.32456 C1449.75481,1042.8636 1454.87352,1023.4244 1454.85349,1001.96179 C1458.23793,1001.96179 1461.08966,1001.6647 1463.86129,1002.00595 C1505.31159,1007.08054 1546.80194,1011.88614 1588.18014,1017.51475 C1613.69356,1020.98747 1639.12688,1025.2551 1664.408,1030.12895 C1678.42235,1032.83085 1691.91203,1038.19851 1705.88633,1041.20954 C1813.70757,1064.43059 1922.434,1079.67041 2033.06692,1077.56269 C2034.88931,1077.52656 2036.7197,1077.87583 2038.5501,1078.04847 C2039.03474,1078.7952 2039.51537,1079.53792 2040,1080.28466 C2038.14557,1081.48505 2036.25109,1082.62523 2034.44472,1083.89789 C2020.12597,1093.98684 2006.45606,1105.1959 1991.39233,1114.00015 C1951.51609,1137.3055 1911.31143,1160.08895 1870.69422,1182.06946 C1845.7896,1195.54682 1820.6807,1208.95995 1792.75612,1215.70064 C1752.43531,1225.44031 1711.44161,1229.56743 1670.11547,1231.25762 C1666.52277,1231.40215 1662.97412,1232.39779 1659.40544,1233 Z" id="Path" fill="#EDB600"></path>
            <path d="M2189.31986,1189.77445 C2164.00529,1190.8757 2139.49862,1188.18466 2116.47514,1176.34327 C2089.48847,1162.46359 2070.16691,1140.94727 2053.97652,1116.09918 C2052.89126,1114.4333 2052.0512,1112.55918 2051.36789,1110.68507 C2047.2399,1099.32823 2043.19632,1087.94336 2039,1076.23413 C2053.249,1075.17293 2068.93696,1074.48015 2084.50434,1072.72616 C2105.07595,1070.40754 2125.59932,1067.5363 2146.04633,1064.29664 C2152.30463,1063.30351 2155.99852,1064.71711 2159.65623,1069.85892 C2175.48889,1092.11608 2186.47409,1108.98715 2189.99513,1135.79745 C2190.2765,1137.93987 2190.381,1150.21775 2191,1152.31612 C2190.99598,1165.54307 2190.74677,1176.34728 2189.31986,1189.77445 Z" id="Path" fill="#EDB600"></path>
        </g>
    </g>
</svg>