<?xml version="1.0" encoding="UTF-8"?>
<svg width="1194px" height="213px" viewBox="0 0 1194 213" version="1.1" xmlns="http://www.w3.org/2000/svg" xmlns:xlink="http://www.w3.org/1999/xlink">
    <!-- Generator: Sketch 54.1 (76490) - https://sketchapp.com -->
    <title>Group</title>
    <desc>Created with Sketch.</desc>
    <g id="Page-1" stroke="none" stroke-width="1" fill="none" fill-rule="evenodd">
        <g id="Artboard" transform="translate(-72.000000, -69.000000)">
            <g id="Group" transform="translate(72.000000, 69.000000)">
                <g id="logo-light">
                    <path d="M45.8230112,0.00855944789 C57.0820989,0.00855944789 68.3411866,0.00226931369 79.6002744,0.0163011515 C81.0515186,0.0182365774 82.515311,0.0192042904 83.9511113,0.199682757 C88.3506931,0.753214565 91.4216166,4.52681123 91.3487407,9.17473653 C91.2792432,13.5991202 88.1586096,17.0253078 83.7561321,17.4772298 C83.0756351,17.5469051 82.3782464,17.5425504 81.6963015,17.4844876 C79.5105066,17.2972353 77.5882234,18.0031819 75.8585063,19.246693 C71.4705074,22.4014372 67.1066396,25.5910191 62.7437371,28.7810849 C59.6954968,31.0097277 56.6477392,33.2398223 53.6332824,35.5139477 C51.9223875,36.8043929 51.870747,37.1934135 52.8123425,39.0838407 C54.4788361,42.430676 56.1771827,45.7620278 57.8036187,49.1282173 C58.5825706,50.7399432 59.7046666,51.556693 61.5545566,51.4836306 C63.7557954,51.3965366 65.2051092,52.5152127 65.9049109,54.6175691 C67.5776787,59.6429024 69.2475507,64.6687196 70.9140443,69.6959884 C71.0443523,70.0898476 71.1616294,70.4904807 71.2499492,70.8954686 C71.6114331,72.5478385 70.9849898,73.776834 69.4145378,74.3889124 C68.8744839,74.59939 68.2856851,74.7213218 67.7079865,74.791481 C66.0217055,74.99712 65.8783667,75.1374384 65.8696795,76.8715799 C65.8696795,76.9064177 65.8696795,76.9412554 65.8696795,76.9756092 C65.8696795,83.4012232 65.8904323,89.8268372 65.8547183,96.2519673 C65.8469963,97.6628928 66.4594436,98.545447 67.456058,99.5242887 C69.804979,101.8318 72.4685696,102.549359 75.6799362,102.274529 C78.2899557,102.050987 80.9381024,102.286625 83.5693573,102.299689 C84.8579579,102.30598 85.2590168,101.951797 85.3309274,100.670061 C85.3849811,99.7028317 85.2836305,98.7273771 85.3372016,97.7601479 C85.5461768,94.0010669 87.7493461,91.6877491 91.6421749,91.5740429 C95.4408923,91.4632398 99.2560189,91.5953326 103.052806,91.8174227 C105.876144,91.9829015 108.021882,94.4089579 108.187421,97.2801623 C108.263192,98.5948004 108.259332,99.9137931 108.301802,101.23085 C108.34186,102.476297 108.614059,102.746773 109.866463,102.748224 C114.645868,102.754031 119.425756,102.725483 124.205161,102.761288 C126.693078,102.779675 128.841228,103.642875 130.247588,105.802326 C130.661195,106.43763 130.961386,107.269379 130.980209,108.019357 C131.060324,111.177972 131.035709,114.339974 131.010131,117.500524 C130.943528,125.752213 130.853761,134.003417 130.782816,142.255105 C130.777024,142.938794 130.951734,143.639903 130.851831,144.303754 C130.501447,146.631104 128.29297,148.576206 125.93536,148.616367 C121.089354,148.699106 116.241899,148.729589 111.395409,148.780394 C110.910374,148.785717 110.424856,148.768298 109.940304,148.785717 C108.690313,148.829748 108.403153,149.080869 108.338964,150.312768 C108.261262,151.80111 108.313385,153.299613 108.171494,154.780698 C107.866477,157.956732 105.228948,160.385208 102.015651,160.437948 C98.7598835,160.491657 95.5021853,160.498431 92.2464175,160.437464 C88.2406553,160.362467 85.4848838,157.517875 85.3854638,153.450576 C85.3589195,152.37448 85.3878769,151.296932 85.3705025,150.220835 C85.354576,149.24538 84.8473403,148.777007 83.8666525,148.778943 C80.1596332,148.787168 76.451166,148.718944 72.7475252,148.83265 C71.9429943,148.857327 71.0163602,149.354732 70.3875037,149.909715 C67.3595335,152.583022 64.1713329,155.032787 60.5521507,156.822089 C54.0874296,160.017961 47.249159,161.453563 40.114076,160.003929 C32.6184743,158.480748 26.0789468,154.878922 20.6600674,149.472308 C13.492166,142.32091 10.2412245,131.572523 11.8309813,121.630724 C12.4883124,117.520363 13.3917807,113.393067 15.1837561,109.614148 C17.0254415,105.732167 19.8497451,103.402882 22.8260748,100.482324 C24.3627432,98.9746277 25.5543367,97.1780686 25.5403406,94.9474902 C25.5022136,88.9041228 25.5273099,82.8607555 25.5253794,76.8173881 C25.5248967,75.0726017 25.371423,74.9105097 23.6716285,74.8011581 C20.8757994,74.6216474 19.5104619,72.826056 20.3579461,70.1106534 C21.8637266,65.2856366 23.5249114,60.5094894 25.1223901,55.713504 C25.2647636,55.2867426 25.4167895,54.8633682 25.5659197,54.4390261 C26.2256639,52.561663 27.6682209,51.4037944 29.6228399,51.4899209 C31.6874966,51.5808859 32.8974298,50.6552684 33.7516707,48.8553223 C35.3544582,45.4780041 37.0721098,42.1558455 38.7308815,38.8056233 C39.5054898,37.2413153 39.4219961,36.7555234 38.019014,35.7200705 C30.4365404,30.1228189 22.8473102,24.5347604 15.2392575,18.9728301 C13.8082835,17.9267324 12.1943956,17.4433599 10.3638105,17.588033 C6.71036227,17.8768953 3.53470978,16.8748285 1.456057,13.6310547 C-0.378871701,10.7671082 -0.47491347,7.71348997 1.1418701,4.74212736 C2.8165683,1.66383245 5.53903878,0.0419455448 9.03080866,0.0283975634 C21.2951979,-0.0204719407 33.5591045,0.00855944789 45.8230112,0.00855944789 Z M73.6601632,125.226745 C73.5650868,122.56263 73.9979986,119.590784 72.5679897,116.746192 C71.3290991,114.281427 70.5853787,111.583444 68.9560471,109.284641 C66.7017199,106.104253 63.6805064,103.868352 60.4416303,101.816317 C55.8697525,98.919468 50.8857156,97.655635 45.5281291,97.4925753 C42.4103913,97.3977394 39.5527867,98.3770649 36.6271323,99.1884923 C28.6445652,101.401652 21.5833233,108.200803 19.0958897,116.162177 C18.2802586,118.772099 17.6793941,121.864426 17.696286,124.606925 C17.7474439,132.846516 20.2705915,140.979177 26.2575169,146.849323 C29.1947542,149.729236 32.7270643,151.766757 36.6319586,152.94785 C41.2492029,154.34426 45.9615237,154.831987 50.8046351,153.842017 C57.5907825,152.455284 63.2524207,149.330055 67.578644,143.847962 C71.7509107,138.560861 74.2204873,132.712488 73.6606458,125.827695 C73.6529239,125.725116 73.6601632,125.620119 73.6601632,125.226745 Z M91.345845,125.22239 C91.3767327,125.664151 91.399416,125.837371 91.3989334,126.010108 C91.3830069,133.855841 91.3603236,141.701574 91.3540495,149.54779 C91.3535669,150.411474 91.3704587,151.287254 91.5099364,152.135454 C91.7005721,153.29671 92.3149498,153.893305 93.4505593,153.921369 C95.8385728,153.980883 98.2299647,153.98911 100.617496,153.918466 C101.915749,153.880241 102.487656,153.132683 102.500204,151.798691 C102.507926,150.965974 102.530609,150.132773 102.530609,149.300056 C102.532057,138.47667 102.524817,127.652317 102.649334,116.829416 C102.689874,113.365487 102.76082,109.902042 102.815838,106.438114 C102.829834,105.564753 102.878097,103.383528 102.804256,101.540519 C102.720762,99.4550971 102.426363,97.7422452 100.732842,97.7209556 C98.2796747,97.6904726 95.8250594,97.6803116 93.3718919,97.7233749 C91.8796249,97.7499869 91.3762502,98.3344855 91.3670804,99.8683106 C91.3530843,102.263884 91.3477755,104.659457 91.3468102,107.055031 C91.3443971,113.200976 91.345845,119.345953 91.345845,125.22239 Z M108.284911,125.917692 C108.284911,131.127375 108.281532,136.337058 108.286841,141.546256 C108.288289,143.011373 108.656047,143.382975 110.141075,143.370395 C114.46585,143.33459 118.790625,143.281849 123.1154,143.232979 C123.460958,143.229109 123.806998,143.207819 124.15159,143.182174 C125.018862,143.117338 125.627931,142.69977 125.672332,141.792538 C125.731212,140.585317 125.693084,139.373256 125.693084,138.163615 C125.693567,129.203078 125.697429,120.242539 125.690189,111.282001 C125.688259,108.822559 125.251485,108.399184 122.779496,108.361443 C122.502471,108.357089 122.225446,108.359508 121.947938,108.359508 C118.102889,108.359508 114.257357,108.359508 110.412308,108.359508 C108.48906,108.359508 108.284911,108.558373 108.283945,110.497186 C108.28105,115.637677 108.283463,120.777685 108.284911,125.917692 Z M59.9170204,84.3282922 C59.9170204,81.7580465 59.9175029,79.1878009 59.9170204,76.6175553 C59.9165376,75.1103424 59.6327559,74.832125 58.0874004,74.8316411 C53.6207343,74.8306733 49.154068,74.8311572 44.6878843,74.8311572 C40.8423525,74.8316411 36.9968207,74.8263186 33.1512889,74.8364797 C31.8607579,74.8398666 31.4809344,75.2303388 31.4799692,76.5101393 C31.4765908,81.3380591 31.4732125,86.165979 31.4857606,90.993899 C31.4876911,91.6853298 31.4867258,92.4009536 31.6657786,93.0565792 C31.7497549,93.363828 32.3086311,93.8065567 32.5668339,93.7557518 C35.2613122,93.2235096 37.7101361,92.2228944 40.4688032,91.9388706 C43.5460008,91.6224285 46.6463642,91.5992034 49.7274228,91.8779048 C52.0763439,92.0903177 54.3552848,92.7594912 56.6424303,93.299475 C58.2452178,93.6778508 59.8697234,94.341218 59.890476,92.1430581 C59.9160551,89.5384587 59.8981981,86.9333754 59.9170204,84.3282922 Z M46.2173133,12.0614243 C57.4870187,12.0614243 68.7654114,11.9283637 80.0336688,12.0570696 C82.0587506,12.0802947 85.0210841,11.9085256 85.3651936,9.22118676 C85.6060221,7.3418882 83.9853775,6.30449992 82.2957179,6.29337121 C69.7726433,6.21256718 57.2495688,6.07853895 44.7264941,6.07515195 C33.4456884,6.07224881 22.1537824,6.08773222 10.8758724,6.34998242 C9.41014952,6.38385238 7.28854338,6.43610888 6.38314459,7.82477696 C4.61481773,10.5372764 9.00860805,12.0469086 10.8946947,12.0498117 C22.6692226,12.0701337 34.443268,12.0609404 46.2173133,12.0614243 Z M45.5580517,68.463606 C47.7037889,68.463606 49.8490436,68.463606 51.9947809,68.463606 C55.2476528,68.463606 58.5010075,68.4708638 61.7538795,68.4607029 C64.0950786,68.4534451 64.4652497,67.890236 63.7056027,65.706108 C63.0362061,63.7832623 62.4049365,61.845901 61.8117941,59.8978948 C61.1863161,57.843924 60.9257002,57.6145761 58.7635539,57.5860285 C58.5907752,57.5836093 58.4175139,57.5860285 58.2442526,57.5860285 C49.7312838,57.5860285 41.2178325,57.5855447 32.7048636,57.5860285 C32.3935726,57.5860285 32.0817987,57.5850608 31.7709902,57.5986089 C30.6691642,57.6474784 30.0108679,58.1787528 29.7338429,59.2892033 C29.3921466,60.6604525 28.9558563,62.0089606 28.5345273,63.3598879 C28.185109,64.4809834 27.7478535,65.5769182 27.4438017,66.7091424 C27.1619505,67.7586271 27.573627,68.2976433 28.6373258,68.4239297 C29.0480371,68.4723155 29.4664703,68.4626383 29.8815252,68.4626383 C35.1068732,68.4640898 40.3327038,68.463606 45.5580517,68.463606 Z M85.5148064,125.815114 C85.5148064,123.800819 85.5148064,121.786526 85.5148064,119.772231 C85.5148064,116.716193 85.5225284,113.659672 85.5109454,110.603634 C85.5066019,109.407057 85.0703117,108.794011 84.1581561,108.781431 C81.9414735,108.750948 79.7243081,108.753851 77.5076255,108.780463 C76.6297361,108.791108 76.0930606,109.304963 76.3396804,110.179292 C77.3927614,113.912245 78.8961289,117.427462 79.4825145,121.292992 C80.3188984,126.804601 79.6596368,132.700392 77.70357,137.920719 C77.0645786,139.625345 74.8913318,142.927667 78.0457489,142.963471 C79.7083816,142.982342 81.3710143,142.967826 83.033647,142.967826 C85.1180912,142.967826 85.5119107,142.583161 85.5138412,140.505481 C85.5172196,135.608369 85.5148064,130.711741 85.5148064,125.815114 Z M67.3136844,17.7288351 C64.6356152,17.1133697 61.7234743,17.4235217 58.9942471,17.4351343 C56.1052721,17.4472307 53.2162969,17.4656172 50.3273219,17.4825522 C48.9948027,17.490294 48.6313884,17.8633473 48.6227012,19.2442737 C48.6106356,21.1869574 48.6188402,23.1296411 48.6202881,25.0728088 C48.6212533,26.5988921 48.5811956,28.1269108 48.6429713,29.6525103 C48.7530092,32.3514617 53.0483446,28.7022162 53.758764,28.1883606 C57.6491797,25.3747353 61.4256965,22.3975663 65.2987378,19.556845 C65.9917829,19.0478279 66.763978,18.3999441 67.3136844,17.7288351 Z M24.9008666,17.9180231 C24.8820443,17.938345 24.8666004,17.9601186 24.8550175,17.9828598 C24.3950788,18.885736 27.3245941,20.4074647 27.8829877,20.7950336 C30.9080621,22.8973901 33.9234842,25.0863567 36.8192159,27.3629015 C37.8447876,28.1690063 42.6874163,33.1338576 42.7414699,29.2823601 C42.7680141,27.3841912 42.7134779,25.4918284 42.7805624,23.5926918 C42.8326855,22.1174135 43.1381852,20.2724687 42.6415672,18.8426728 C41.873233,16.6319325 38.9852232,17.4322312 37.2415101,17.4680365 C33.9230015,17.5367442 30.6088365,17.3741684 27.2883974,17.530454 C26.84342,17.5522276 25.2580068,17.5285186 24.9008666,17.9180231 Z M45.7124908,51.2479925 C47.2703945,51.2479925 48.8282982,51.2721854 50.3857192,51.2402509 C51.5729693,51.2155741 51.9537579,50.6034957 51.4190129,49.5380437 C50.0541579,46.8178027 48.6864073,44.0980454 47.2462634,41.4179644 C46.3495518,39.7486595 45.0421289,39.7612399 44.1449346,41.4368349 C42.7240955,44.089336 41.3621364,46.7737718 40.0117602,49.4635298 C39.4205483,50.6412366 39.8027848,51.2204127 41.1435086,51.2426702 C42.6661809,51.2678307 44.1893358,51.2484764 45.7124908,51.2479925 Z" id="Shape" fill="#E9E9E9" fill-rule="nonzero"></path>
                    <path d="M120.205927,160.553495 C123.382643,160.553495 126.464264,160.534152 129.544438,160.584444 C129.844683,160.58928 130.254987,160.96454 130.417178,161.272098 C132.73129,165.661566 135.343235,169.855186 138.518984,173.674996 C145.156249,181.65796 152.779207,188.45905 161.996076,193.370304 C168.374125,196.768916 174.981944,199.589646 182.038683,201.179662 C189.407736,202.840282 196.887329,203.242138 204.440295,202.912335 C215.357751,202.436006 225.524109,199.389443 235.234789,194.515426 C244.011908,190.109998 251.557633,184.120841 258.122973,176.867117 C267.018355,167.039774 272.829703,155.518929 276.086549,142.745122 C277.936776,135.489466 278.361078,128.019097 277.972979,120.529387 C277.676596,114.810552 277.034109,109.140559 275.39386,103.622894 C272.696958,94.5489702 268.794246,86.0306819 263.17888,78.4118549 C256.061318,68.7556992 247.351297,60.8597802 236.643819,55.2719958 C230.419272,52.0237788 223.990539,49.314755 217.136538,47.7914733 C209.902643,46.1835647 202.554347,45.6932131 195.145228,46.1129618 C188.458728,46.4916062 181.896767,47.4655393 175.5443,49.6972681 C166.457765,52.8893896 157.949034,57.159898 150.502747,63.3279802 C142.348324,70.0821633 135.456671,77.9229541 130.6064,87.4350026 C130.292638,88.0506018 129.830202,88.6173593 129.646773,89.2663257 C129.124962,91.11264 127.980458,91.5788125 126.140849,91.4289023 C123.802118,91.2383712 121.436355,91.3829621 118.870751,91.3829621 C123.771707,79.497012 130.764728,69.211233 140.100343,60.588491 C156.316508,45.6110042 175.509546,37.6319091 197.55347,37.0907814 C242.325319,35.9916006 279.96078,68.5772576 286.117748,112.170197 C292.576893,157.902017 262.905183,199.932505 218.885879,209.828033 C175.804482,219.512237 135.602933,195.697299 120.205927,160.553495 Z" id="Path" stroke="#979797" stroke-width="0.75" fill="#E9E9E9" fill-rule="nonzero"></path>
                    <path d="M219.890755,111.491116 C220.004263,112.81424 219.746336,113.71648 218.77887,114.493422 C216.686961,116.174055 215.679888,118.52907 215.119115,121.089206 C214.846698,122.333958 214.652046,123.596126 214.391704,125.017939 C216.233898,125.017939 217.920565,125.027616 219.606747,125.01407 C220.572281,125.006329 221.783182,125.300948 222.429931,124.83217 C223.005677,124.414673 222.902795,123.114771 223.196465,122.236719 C223.711835,120.698316 224.229138,119.153623 224.879267,117.669886 C225.597017,116.031342 227.050873,115.217149 228.680543,114.67 C229.324393,114.453752 229.962447,114.520513 230.174488,115.157161 C230.312628,115.570788 230.184148,116.301772 229.885649,116.596874 C227.554167,118.902061 227.098207,122.102714 225.600881,125.039226 C228.18546,125.039226 230.559929,125.058094 232.932949,125.011651 C233.182664,125.006813 233.497586,124.664784 233.658911,124.403062 C234.56745,122.927549 235.504486,121.463164 236.302899,119.927663 C237.050596,118.490368 238.135433,118.190912 239.629378,118.62389 C239.941884,121.229016 237.851425,122.847727 236.911489,125.054707 C237.245732,125.095343 237.504141,125.152913 237.762068,125.153397 C239.772348,125.160653 241.783113,125.129208 243.792428,125.171781 C244.505831,125.186777 244.799984,124.947792 245.021201,124.253575 C246.013784,121.140002 247.219856,118.119313 249.229653,115.488547 C251.338952,112.727161 254.038003,110.808027 257.369312,109.835156 C259.293134,109.273493 261.249801,108.823099 263.304037,108.29385 C263.915042,110.317479 263.994739,112.331917 263.740193,114.366189 C263.191012,118.758863 261.151269,122.450064 258.280265,125.718446 C257.755719,126.315424 257.633035,126.687929 258.319389,127.210891 C258.743471,127.534052 259.064671,127.991703 259.609988,128.58094 C257.749922,128.875559 256.133776,129.208396 254.500242,129.373363 C251.780421,129.648147 249.05239,129.861975 246.322909,130.017268 C241.153753,130.311886 235.992808,130.060323 230.83621,129.663144 C222.301933,129.005694 213.878266,127.621616 205.51401,125.83939 C204.718495,125.670069 203.93602,125.437372 203.176248,125.027132 C205.375869,125.027132 207.575972,124.995202 209.774627,125.044548 C210.538263,125.06148 210.841109,124.812336 211.04832,124.069257 C211.743852,121.571529 212.434554,119.063641 213.319909,116.630255 C214.115424,114.444077 215.895309,112.939054 217.654909,111.545783 C218.123911,111.177147 219.130017,111.491116 219.890755,111.491116 Z" id="Path" fill="#29313F" fill-rule="nonzero"></path>
                    <path d="M144.403273,118.650324 C145.613828,117.21175 146.688805,115.625246 148.05665,114.357885 C156.811339,106.244934 167.160641,103.395434 178.849804,105.185648 C180.694345,105.46793 181.601417,106.467559 181.610584,108.264563 C181.633261,112.543906 181.599004,116.823733 181.584047,121.103561 C181.583564,121.235002 181.540624,121.366443 181.503955,121.574032 C177.943216,121.262648 174.416251,120.954175 170.631157,120.62339 C171.363568,119.889068 171.966675,119.298797 172.553376,118.693005 C174.02013,117.178769 173.441631,114.968527 171.375148,114.558199 C170.793271,114.442764 169.9991,114.861337 169.452445,115.248384 C168.755254,115.741651 168.215354,116.457057 167.598738,117.067699 C167.020721,117.640509 166.430642,117.753034 165.809684,117.109896 C165.255791,116.536116 164.682599,115.980766 164.113266,115.422507 C162.850121,114.183278 161.820016,114.144961 160.70644,115.291066 C159.561986,116.469183 159.596243,117.461536 160.834299,118.708041 C161.223664,119.099938 161.627021,119.477285 162.163062,119.995773 C156.197618,119.627641 150.417448,119.270666 144.637279,118.91369 C144.559116,118.825901 144.480953,118.738112 144.403273,118.650324 Z" id="Path" fill="#29313F" fill-rule="nonzero"></path>
                    <path d="M196.913554,105.679165 C196.670529,107.139048 196.075237,108.285024 194.997265,109.297578 C191.538126,112.547746 189.863417,116.702759 189.305181,121.370113 C189.261389,121.737389 189.201233,122.102723 189.138673,122.539863 C188.014983,122.393826 187.001494,122.262345 185.95384,122.126012 C186.498601,117.226745 187.635285,112.624403 190.904816,108.842972 C192.466433,107.037162 194.12478,105.350219 196.913554,105.679165 Z" id="Path" fill="#29313F" fill-rule="nonzero"></path>
                    <path d="M202.299536,124.954442 C201.035839,124.65155 199.910846,124.381938 198.720101,124.096892 C199.803819,118.759636 201.250855,113.691026 205.494536,109.874979 C206.554737,108.92145 207.425838,108.601677 208.712093,109.202155 C208.744729,110.242983 208.607944,111.121272 207.612057,111.861619 C204.578799,114.117389 203.194635,117.340193 202.695012,120.999972 C202.523671,122.260252 202.439202,123.532588 202.299536,124.954442 Z" id="Path" fill="#29313F" fill-rule="nonzero"></path>
                    <path d="M74.0666851,125.279672 C73.9504585,136.844626 67.3467639,148.275076 56.2873958,152.256985 C49.7695447,154.603555 43.3862465,155.014808 36.7116584,152.994824 C32.8096285,151.813799 29.2799096,149.776397 26.3448269,146.896648 C22.7649521,143.384053 20.2875418,138.793004 18.6584407,134.079062 C15.1721259,123.988334 18.8142133,110.875128 27.2244836,104.294091 C33.4930021,99.3890373 42.094733,96.4681642 50.0405793,97.9240044 C58.0732338,99.3958109 66.1319309,103.913318 70.1849106,111.223 C71.3852754,113.388133 72.415882,115.780666 73.1677377,118.141749 C73.8443596,120.265756 74.0917631,122.772472 74.0666851,125.279672 Z" id="Path"></path>
                    <path d="M91.4118792,125.311221 C91.4118792,119.436272 91.409941,113.292851 91.4128483,107.148946 C91.4138174,104.753979 91.4191473,102.359012 91.4331991,99.9640453 C91.4419209,98.4310923 91.9477835,97.846258 93.4459897,97.8196526 C95.9089208,97.7761165 98.3733052,97.7862749 100.836236,97.8172339 C102.080542,97.8327134 102.636313,98.3212847 102.675076,99.5785093 C102.750665,102.016045 103.314672,104.458417 102.661024,106.898855 C102.583013,107.19103 102.643096,107.520937 102.643096,107.832945 C102.642612,121.682733 102.643581,135.533003 102.641643,149.38279 C102.641643,150.215296 102.618869,151.048286 102.611116,151.880793 C102.598518,153.214446 102.024335,153.961815 100.720915,154.000031 C98.3243665,154.070172 95.9229724,154.062432 93.5254548,154.002933 C92.3853257,153.974393 91.7685027,153.377948 91.5771082,152.21747 C91.4370754,151.369002 91.4201165,150.493443 91.420601,149.630462 C91.4269001,141.786716 91.4496735,133.942969 91.4656635,126.09874 C91.4656635,125.926047 91.4428899,125.752869 91.4118792,125.311221 Z" id="Path"></path>
                    <path d="M108.273779,125.973206 C108.272811,120.833266 108.270876,115.693324 108.274263,110.552899 C108.275714,108.614111 108.479849,108.415249 110.407523,108.415249 C114.261419,108.415249 118.115799,108.415249 121.969695,108.415249 C122.247357,108.415249 122.525504,108.412829 122.803167,108.417184 C125.280844,108.454925 125.718622,108.87781 125.720557,111.337704 C125.727329,120.298127 125.723943,129.258549 125.723458,138.218972 C125.723458,139.429081 125.761674,140.641126 125.702659,141.847849 C125.658155,142.755068 125.047685,143.172631 124.178418,143.237467 C123.832549,143.263111 123.486197,143.2844 123.139844,143.288271 C118.805118,143.337624 114.470391,143.390364 110.135665,143.425684 C108.64722,143.43778 108.278616,143.066668 108.277165,141.601569 C108.27136,136.392437 108.274746,131.182822 108.273779,125.973206 Z" id="Path"></path>
                    <path d="M59.957832,84.3624811 C59.957832,86.9709771 59.9761604,89.5794729 59.9510794,92.1874843 C59.9366097,93.7194427 59.5893342,93.9897882 58.1245071,93.6559744 C55.7789509,93.1210971 53.4652282,92.3342848 51.091697,92.0566719 C47.8938689,91.6831298 44.6497375,91.0663736 41.4282755,92.0842879 C40.9869462,92.2238211 40.4684448,92.1307989 39.9861177,92.1220781 C38.8565079,92.1017295 37.8088936,92.15357 36.7082234,92.699106 C35.47009,93.3129553 34.0226266,93.5295224 32.6436536,93.8022905 C32.3851264,93.8536465 31.8270741,93.4098534 31.7431492,93.102202 C31.5642058,92.4457176 31.5651705,91.7291564 31.5632412,91.0368198 C31.5507007,86.2025753 31.554077,81.368331 31.5574533,76.5340866 C31.5584179,75.2526097 31.9380093,74.861626 33.2277517,74.8582346 C37.0709333,74.8480603 40.9141148,74.8533897 44.7572964,74.8529052 C49.2212329,74.8524207 53.6851693,74.8519362 58.1486234,74.8533897 C59.6930345,74.8538742 59.9766428,75.1329406 59.9771251,76.6416435 C59.9776075,79.215256 59.9771251,81.7888686 59.9771251,84.3624811 C59.9703726,84.3624811 59.9641023,84.3624811 59.957832,84.3624811 Z" id="Path"></path>
                    <path d="M46.2862576,12.1918957 C34.5092129,12.1914079 22.7321681,12.2006756 10.9551233,12.1806771 C9.36206513,12.1777505 7.90610649,11.6773003 6.78758654,10.4539778 C5.60244779,9.15895341 5.78782184,7.87222105 7.3794318,7.23129371 C8.47574548,6.78986354 9.68840069,6.42403744 10.8537469,6.40989216 C22.1673566,6.27331708 33.4814489,6.15430165 44.7955413,6.15722825 C57.3218062,6.16064264 69.8480711,6.29575441 82.3743359,6.3772117 C84.1049764,6.38843036 85.2447371,7.19958878 85.4774202,8.55655976 C85.7062413,9.89158116 84.7006836,11.4226854 83.2157603,11.8982593 C82.6721895,12.0723925 82.082758,12.1792137 81.5140844,12.1801893 C69.7708319,12.1957979 58.0285448,12.1918957 46.2862576,12.1918957 Z" id="Path"></path>
                    <path d="M45.6743198,68.4516286 C40.4448511,68.4516286 35.2148994,68.4525949 29.9854307,68.450179 C29.5700486,68.450179 29.1512854,68.4598427 28.7402502,68.4115239 C27.6761956,68.2858946 27.2637113,67.7476212 27.5457849,66.6990997 C27.8500765,65.5684358 28.2876767,64.4740112 28.6373707,63.3544607 C29.0585489,62.0058783 29.4951832,60.6592287 29.837632,59.289386 C30.1143925,58.1804657 30.773691,57.6499234 31.8763858,57.6011212 C32.1874394,57.587592 32.4994591,57.5885583 32.8109957,57.5885583 C41.3306778,57.5880751 49.8508429,57.5885583 58.370525,57.5885583 C58.5439229,57.5885583 58.7168378,57.5866256 58.8902358,57.5885583 C61.0540871,57.6170665 61.3149086,57.8460985 61.9408798,59.8972385 C62.53449,61.8425602 63.1662573,63.7772517 63.8361819,65.6974475 C64.5969109,67.8780824 64.2259649,68.4409984 61.8829195,68.4482462 C58.6274823,68.45791 55.371562,68.4506621 52.1161249,68.4511454 C49.9691785,68.4516286 47.8217492,68.4516286 45.6743198,68.4516286 Z" id="Path"></path>
                    <path d="M85.6277667,125.809082 C85.6277667,130.698839 85.6306737,135.58908 85.6263132,140.478837 C85.6248598,142.554086 85.2295111,142.937728 83.1364883,142.937728 C81.4673997,142.937728 79.7978266,142.952223 78.1292225,142.93338 C76.4596493,142.914535 76.1248625,142.501902 76.6418197,140.905482 C77.1243778,139.415847 77.820114,137.992889 78.2731177,136.496004 C78.7866835,134.798602 79.1936601,133.062544 79.5376523,131.321655 C79.8298033,129.843615 80.0168188,128.339483 80.1539311,126.83825 C80.2464699,125.825993 80.2968575,124.778947 80.1437568,123.781185 C79.8162374,121.647473 79.3864895,119.526323 78.9107144,117.419669 C78.7101331,116.531588 78.2731177,115.69859 77.9707922,114.830803 C77.4344552,113.291399 76.8612965,111.761176 76.4170136,110.194714 C76.1694362,109.321612 76.7081957,108.808477 77.5894939,108.797847 C79.8147839,108.77079 82.0410429,108.768374 84.2658485,108.798814 C85.1810614,108.811376 85.6190458,109.423562 85.6238907,110.618461 C85.6355186,113.67021 85.6277667,116.72196 85.6277667,119.774193 C85.6277667,121.786145 85.6277667,123.797614 85.6277667,125.809082 Z" id="Path"></path>
                    <path d="M67.4443978,17.7954942 C66.5854763,18.5632935 66.0178539,19.1622447 65.3627934,19.6421797 C60.5020128,23.2034717 55.6238413,26.7415409 50.7509837,30.2863836 C50.6108896,30.3879827 50.4712786,30.491517 50.3234553,30.5810211 C49.3041503,31.2017435 48.7403925,30.9429075 48.6911181,29.735813 C48.6288003,28.2118258 48.6693793,26.6839681 48.6684132,25.1580457 C48.6669638,23.2155668 48.6592346,21.2726041 48.6708285,19.3301251 C48.679524,17.9493444 49.0432855,17.5763304 50.3770775,17.5685895 C55.2938957,17.5395612 60.2107138,17.5081138 65.1280152,17.5056948 C65.7922542,17.5056948 66.4560102,17.666802 67.4443978,17.7954942 Z" id="Path"></path>
                    <path d="M24.9289137,17.8392054 C25.764327,17.7383786 26.5992585,17.5565995 27.4356355,17.5498131 C32.0260727,17.5110336 36.616992,17.5134573 41.207911,17.5057014 C42.4056259,17.5037625 42.858021,17.9254899 42.8628388,19.1116589 C42.875847,22.5155323 42.8898187,25.9194059 42.8426039,29.32231 C42.835859,29.8191727 42.6195379,30.483757 42.2639814,30.7430951 C42.0380248,30.9079081 41.3071585,30.5627703 40.9198042,30.2821034 C36.1053373,26.7938844 31.3091783,23.2790044 26.5168735,19.7602465 C25.884773,19.2958616 25.2974784,18.7694294 24.6894671,18.2715972 C24.7689614,18.1276282 24.8489375,17.9836591 24.9289137,17.8392054 Z" id="Path"></path>
                    <path d="M45.7196668,51.3012417 C44.1953093,51.3012417 42.6704689,51.3206362 41.1465944,51.2954233 C39.8048121,51.2731196 39.4222738,50.6927371 40.0139525,49.5125778 C41.3653948,46.8172178 42.7289123,44.1271913 44.15039,41.4691659 C45.0487755,39.7900813 46.3567476,39.7774748 47.2541673,41.4502562 C48.6954481,44.1359189 50.0642787,46.8613404 51.430211,49.5872468 C51.9648954,50.6549177 51.5842891,51.2682709 50.3961017,51.2929991 C48.838417,51.3254849 47.2788004,51.3007569 45.7196668,51.3012417 Z" id="Path"></path>
                    <path d="M133.082249,141.276586 C133.087075,134.109577 133.085145,126.94257 133.086592,119.775077 C133.087075,118.415208 133.0919,118.398276 134.438639,118.449071 C138.098143,118.586461 141.756683,118.739332 145.494356,118.888816 C145.048498,120.270938 144.495037,121.526314 144.245569,122.840225 C143.207649,128.300987 144.677916,133.101408 148.611979,136.959449 C150.487571,138.798731 152.772831,140.229714 154.924431,141.772448 C158.771637,144.531855 163.18051,146.017987 167.778533,146.638176 C172.921333,147.331898 178.123001,147.691821 183.311642,147.91 C189.156038,148.155753 195.015877,148.210419 200.8651,148.109795 C206.407434,148.014493 211.956041,147.548143 217.269655,145.843831 C219.839125,145.019492 222.320291,143.822652 224.707365,142.543572 C229.712644,139.861084 234.653746,137.055235 239.568308,134.207783 C241.268743,133.222833 242.811872,131.965038 244.426416,130.830605 C244.754536,130.599849 245.078313,130.363769 245.585452,129.999493 C245.984022,130.821897 246.449663,131.50546 246.658115,132.26062 C247.75394,136.224607 250.499533,138.865492 253.719452,141.071469 C256.324147,142.856085 259.318242,143.439025 262.44648,143.44096 C263.325649,143.441444 263.698162,143.206333 263.70154,142.218481 C263.711673,139.207032 263.747862,136.191228 262.583519,133.352967 C261.879026,131.635593 259.461071,130.343936 258.703499,128.79201 C261.926796,127.731594 266.803722,126.281743 270.230647,125.154566 C270.230647,126.193214 270.302061,127.375541 270.219548,128.547225 C269.504922,138.657955 266.827366,148.215257 262.023302,157.143178 C259.218841,162.3548 255.774063,167.112648 251.747354,171.458328 C245.652523,178.035625 238.536661,183.194516 230.448984,187.006116 C224.617615,189.754397 218.503483,191.599001 212.139402,192.659419 C207.151012,193.49053 202.128362,193.691294 197.111019,193.406838 C189.162794,192.956452 181.509394,191.09298 174.180735,187.943657 C165.829114,184.354589 158.459924,179.30648 152.083779,172.830291 C147.473691,168.14791 143.636134,162.871463 140.481839,157.096736 C139.976631,156.171774 139.409176,155.276804 138.819042,154.403122 C136.512552,150.990628 134.775446,147.30771 133.516043,143.388714" id="Path" fill="#417CA9" fill-rule="nonzero"></path>
                    <path d="M199.852858,148.85877 C195.489754,148.85877 191.126648,148.85877 186.763543,148.85877 C186.626065,148.78849 186.491964,148.663439 186.350627,148.655199 C181.520581,148.36584 176.682816,148.174871 171.862417,147.773547 C169.155796,147.548166 166.454,147.093526 163.791758,146.540008 C158.357291,145.410678 153.76554,142.52192 149.418835,139.211966 C146.919637,137.308584 145.015692,134.884645 143.857503,131.944993 C143.356313,130.672195 143.090042,129.306336 142.717163,127.982645 C142.717163,126.86931 142.717163,125.755975 142.717163,124.64264 C142.921691,123.851139 143.043733,123.025226 143.350525,122.275409 C143.836279,121.088885 144.445522,119.953739 145.002668,118.797267 C145.279553,118.797267 145.55692,118.797267 145.833805,118.797267 C147.895969,118.944613 149.957169,119.101652 152.019815,119.236397 C154.353075,119.388589 156.688265,119.519941 159.127167,119.666802 C158.908166,122.18865 159.040338,124.552972 160.562239,126.52421 C162.088965,128.502234 164.217215,129.520085 166.679752,129.680517 C168.887595,129.824471 170.869202,129.095496 172.5609,127.649662 C174.603286,125.903806 175.219765,123.556932 175.217353,120.965774 C175.624963,120.965774 175.968415,120.929907 176.30222,120.971106 C181.294346,121.583755 186.291295,122.16393 191.274738,122.843466 C194.347483,123.262724 197.410581,123.777951 200.455349,124.366365 C202.143187,124.692563 203.767836,125.340595 205.45085,125.704113 C218.436455,128.507566 231.531078,130.347453 244.855311,130.09299 C245.074793,130.088628 245.295239,130.130795 245.515686,130.151638 C245.574054,130.24179 245.631939,130.331457 245.690306,130.42161 C245.466965,130.566532 245.238801,130.704185 245.021248,130.857832 C243.296749,132.07586 241.650394,133.429118 239.836172,134.492045 C235.033621,137.305675 230.191515,140.056297 225.299724,142.70998 C222.3003,144.337088 219.276274,145.95644 215.913137,146.770237 C211.057043,147.946097 206.119909,148.444359 201.142736,148.648414 C200.710044,148.665863 200.282657,148.786066 199.852858,148.85877 Z" id="Path" fill="#EDB600" fill-rule="nonzero"></path>
                    <path d="M263.673856,143.640196 C260.62506,143.773148 257.673564,143.448262 254.900699,142.018664 C251.650521,140.342985 249.323501,137.745342 247.373588,134.745459 C247.242884,134.544339 247.14171,134.318079 247.059414,134.091819 C246.562254,132.72072 246.07526,131.346237 245.56987,129.932594 C247.285969,129.804477 249.17537,129.720838 251.05025,129.509081 C253.527821,129.229156 255.999582,128.882515 258.462147,128.491394 C259.215874,128.371494 259.660753,128.542157 260.101275,129.162922 C262.008104,131.850005 263.331122,133.886831 263.755184,137.12361 C263.789071,137.382262 263.801656,138.864558 263.876206,139.117891 C263.875722,140.714767 263.845708,142.019148 263.673856,143.640196 Z" id="Path" fill="#EDB600" fill-rule="nonzero"></path>
                </g>
                <text id="Sump-Thing" font-family="WetPet-Regular, Wet Pet" font-size="143" font-weight="normal" fill="#FFFFFF">
                    <tspan x="339" y="161">Sump Thing</tspan>
                </text>
            </g>
        </g>
    </g>
</svg>