<?xml version="1.0" encoding="UTF-8"?>
<svg width="516px" height="298px" viewBox="0 0 516 298" version="1.1" xmlns="http://www.w3.org/2000/svg" xmlns:xlink="http://www.w3.org/1999/xlink">
    <!-- Generator: Sketch 54.1 (76490) - https://sketchapp.com -->
    <title>Group 151</title>
    <desc>Created with Sketch.</desc>
    <g id="Page-1" stroke="none" stroke-width="1" fill="none" fill-rule="evenodd">
        <g id="Artboard-2" transform="translate(-142.000000, -101.000000)">
            <g id="Group-151">
                <polygon id="Fill-89" fill="#39B54A" points="148 144 651 144 651 374 148 374"></polygon>
                <path d="M204.7529,247.9136 C204.7529,247.9136 205.2719,241.7006 209.9869,238.5426 C214.7019,235.3876 214.5909,232.1376 214.0919,230.1456 C213.5929,228.1556 210.9299,222.6256 212.6199,218.9966 C214.3129,215.3686 209.1139,208.9826 209.1139,208.9826 C209.1139,208.9826 211.2199,217.5226 209.2369,221.2636 C207.2549,225.0036 208.7659,226.3986 208.7559,229.6696 C208.7459,232.9406 202.8809,238.6196 203.3959,242.6876 C203.9109,246.7556 204.7529,247.9136 204.7529,247.9136" id="Fill-91" fill="#5FA532"></path>
                <path d="M204.6064,249.6421 C204.6064,249.6421 206.7794,242.5281 213.0494,239.9351 C219.3194,237.3431 220.0104,233.5351 219.9354,231.1021 C219.8604,228.6691 218.1684,221.6211 221.0474,217.7851 C223.9284,213.9481 219.5114,205.3211 219.5114,205.3211 C219.5114,205.3211 219.7944,215.7461 216.5484,219.6451 C213.3024,223.5451 214.7034,225.5161 213.8644,229.3211 C213.0264,233.1271 204.7854,238.3921 204.3534,243.2461 C203.9214,248.1011 204.6064,249.6421 204.6064,249.6421" id="Fill-93" fill="#6DBD40"></path>
                <path d="M207.6016,225.4409 C206.6506,223.3389 202.9556,217.9139 203.3756,213.2499 C203.7966,208.5879 197.7726,202.9999 197.7726,202.9999 C197.7726,202.9999 201.8186,212.0249 201.1856,216.9069 C200.5526,221.7899 202.1806,222.8909 203.0546,226.6079 C203.9286,230.3249 200.6046,238.6519 202.1276,243.1069 C203.6526,247.5629 204.6616,248.6079 204.6616,248.6079 C204.6616,248.6079 203.4146,241.3859 206.4676,236.2919 C209.5186,231.1969 208.5506,227.5429 207.6016,225.4409" id="Fill-95" fill="#6DBD40"></path>
                <path d="M204.6318,249.6426 C204.6318,249.6426 202.6888,244.2946 197.7838,242.6036 C192.8798,240.9136 192.1998,238.0286 192.1618,236.1616 C192.1248,234.2946 193.1458,228.8156 190.7888,226.0126 C188.4318,223.2086 191.4768,216.3916 191.4768,216.3916 C191.4768,216.3916 191.6688,224.3926 194.3078,227.2256 C196.9478,230.0596 195.9518,231.6366 196.7428,234.5116 C197.5338,237.3876 204.0548,241.0326 204.5748,244.7316 C205.0968,248.4306 204.6318,249.6426 204.6318,249.6426" id="Fill-97" fill="#6DBD40"></path>
                <path d="M204.7363,246.9932 C204.7363,246.9932 203.8683,241.3872 199.3833,238.8572 C194.9003,236.3282 194.7933,233.3692 195.1183,231.5252 C195.4443,229.6812 197.5093,224.4692 195.7423,221.2942 C193.9733,218.1192 198.2863,211.9482 198.2863,211.9482 C198.2863,211.9482 196.9203,219.8552 198.9603,223.1092 C200.9993,226.3652 199.7153,227.7402 199.9343,230.7092 C200.1523,233.6792 205.8413,238.4172 205.6333,242.1492 C205.4263,245.8812 204.7363,246.9932 204.7363,246.9932" id="Fill-99" fill="#5FA532"></path>
                <path d="M513.7832,344 L574.1332,344 C574.1332,344 596.5192,325.017 589.2192,318.204 C581.9162,311.396 577.0492,329.884 569.7522,326.479 C562.4522,323.073 581.4332,291.438 567.3202,290.466 C553.2062,289.492 557.0982,319.18 548.3402,319.665 C539.5792,320.156 548.8212,271.978 535.6842,274.407 C522.5432,276.841 534.7092,306.437 526.9242,309.158 C519.1382,311.881 524.0102,264.187 511.3522,268.079 C498.6972,271.972 513.7892,303.605 506.4862,309.444 C499.1812,315.288 499.6702,291.901 490.9102,300.186 C482.1522,308.473 492.8552,324.538 513.7832,344" id="Fill-101" fill="#94C85A"></path>
                <path d="M262.5986,336 L332.1936,336 C332.1936,336 344.8466,299.502 335.1106,297.553 C325.3766,295.605 325.8696,306.797 320.0286,309.23 C314.1876,311.664 326.3556,249.861 315.1606,248.402 C303.9656,246.941 304.9396,303.389 295.6936,305.338 C286.4456,307.287 289.8526,267.863 276.7136,272.732 C263.5726,277.598 280.1166,310.203 271.8446,315.072 C263.5726,319.939 263.5776,282.928 250.9196,292.186 C238.2646,301.443 262.5986,336 262.5986,336" id="Fill-103" fill="#B4CB33"></path>
                <path d="M459.0293,342.876 C459.0293,342.876 459.8583,332.934 467.4053,327.88 C474.9513,322.83 474.7733,317.629 473.9743,314.442 C473.1753,311.256 468.9133,302.408 471.6203,296.6 C474.3273,290.793 466.0083,280.574 466.0083,280.574 C466.0083,280.574 469.3793,294.241 466.2053,300.227 C463.0323,306.212 465.4503,308.445 465.4343,313.679 C465.4203,318.914 456.0343,328.001 456.8573,334.513 C457.6813,341.022 459.0293,342.876 459.0293,342.876" id="Fill-105" fill="#5FA532"></path>
                <path d="M458.7949,345.6426 C458.7949,345.6426 462.2729,334.2566 472.3069,330.1076 C482.3389,325.9586 483.4469,319.8656 483.3259,315.9716 C483.2049,312.0796 480.4969,300.7996 485.1069,294.6606 C489.7159,288.5196 482.6479,274.7136 482.6479,274.7136 C482.6479,274.7136 483.1009,291.3986 477.9059,297.6386 C472.7109,303.8776 474.9529,307.0336 473.6099,313.1226 C472.2699,319.2116 459.0799,327.6376 458.3909,335.4066 C457.6999,343.1756 458.7949,345.6426 458.7949,345.6426" id="Fill-107" fill="#6DBD40"></path>
                <path d="M463.5869,306.9121 C462.0659,303.5491 456.1509,294.8661 456.8249,287.4031 C457.4999,279.9421 447.8579,271.0001 447.8579,271.0001 C447.8579,271.0001 454.3329,285.4431 453.3199,293.2561 C452.3079,301.0691 454.9119,302.8311 456.3119,308.7791 C457.7109,314.7291 452.3909,328.0551 454.8289,335.1831 C457.2679,342.3151 458.8829,343.9861 458.8829,343.9861 C458.8829,343.9861 456.8869,332.4301 461.7729,324.2761 C466.6559,316.1241 465.1069,310.2751 463.5869,306.9121" id="Fill-109" fill="#6DBD40"></path>
                <path d="M458.835,345.6426 C458.835,345.6426 455.726,337.0836 447.878,334.3776 C440.029,331.6726 438.94,327.0566 438.881,324.0696 C438.82,321.0806 440.453,312.3126 436.683,307.8276 C432.91,303.3396 437.782,292.4306 437.782,292.4306 C437.782,292.4306 438.091,305.2336 442.314,309.7686 C446.539,314.3046 444.945,316.8276 446.212,321.4286 C447.478,326.0306 457.911,331.8636 458.744,337.7836 C459.579,343.7036 458.835,345.6426 458.835,345.6426" id="Fill-111" fill="#6DBD40"></path>
                <path d="M459.002,341.4023 C459.002,341.4023 457.613,332.4303 450.438,328.3823 C443.262,324.3363 443.091,319.6013 443.611,316.6493 C444.133,313.6983 447.439,305.3573 444.608,300.2763 C441.778,295.1963 448.68,285.3183 448.68,285.3183 C448.68,285.3183 446.494,297.9723 449.759,303.1813 C453.022,308.3903 450.968,310.5913 451.318,315.3433 C451.667,320.0963 460.772,327.6783 460.439,333.6503 C460.107,339.6233 459.002,341.4023 459.002,341.4023" id="Fill-113" fill="#5FA532"></path>
                <path d="M603.8887,330.876 C603.8887,330.876 603.0587,320.934 595.5117,315.88 C587.9657,310.83 588.1447,305.629 588.9437,302.442 C589.7427,299.256 594.0037,290.408 591.2977,284.6 C588.5897,278.793 596.9087,268.574 596.9087,268.574 C596.9087,268.574 593.5387,282.241 596.7117,288.227 C599.8847,294.212 597.4667,296.445 597.4827,301.679 C597.4967,306.914 606.8827,316.001 606.0597,322.513 C605.2357,329.022 603.8887,330.876 603.8887,330.876" id="Fill-115" fill="#5FA532"></path>
                <path d="M604.1221,333.6426 C604.1221,333.6426 600.6451,322.2566 590.6111,318.1076 C580.5781,313.9586 579.4711,307.8656 579.5911,303.9716 C579.7121,300.0796 582.4211,288.7996 577.8101,282.6606 C573.2011,276.5196 580.2701,262.7136 580.2701,262.7136 C580.2701,262.7136 579.8161,279.3986 585.0121,285.6386 C590.2061,291.8776 587.9651,295.0336 589.3071,301.1226 C590.6471,307.2116 603.8371,315.6376 604.5261,323.4066 C605.2181,331.1756 604.1221,333.6426 604.1221,333.6426" id="Fill-117" fill="#6DBD40"></path>
                <path d="M599.3301,294.9121 C600.8511,291.5491 606.7661,282.8661 606.0921,275.4031 C605.4171,267.9421 615.0591,259.0001 615.0591,259.0001 C615.0591,259.0001 608.5851,273.4431 609.5971,281.2561 C610.6091,289.0691 608.0051,290.8311 606.6051,296.7791 C605.2071,302.7291 610.5261,316.0551 608.0881,323.1831 C605.6491,330.3151 604.0351,331.9861 604.0351,331.9861 C604.0351,331.9861 606.0301,320.4301 601.1441,312.2761 C596.2611,304.1241 597.8101,298.2751 599.3301,294.9121" id="Fill-119" fill="#6DBD40"></path>
                <path d="M604.082,333.6426 C604.082,333.6426 607.191,325.0836 615.04,322.3776 C622.889,319.6726 623.977,315.0566 624.037,312.0696 C624.097,309.0806 622.464,300.3126 626.235,295.8276 C630.008,291.3396 625.135,280.4306 625.135,280.4306 C625.135,280.4306 624.827,293.2336 620.603,297.7686 C616.379,302.3046 617.972,304.8276 616.706,309.4286 C615.439,314.0306 605.006,319.8636 604.173,325.7836 C603.339,331.7036 604.082,333.6426 604.082,333.6426" id="Fill-121" fill="#6DBD40"></path>
                <path d="M603.915,329.4023 C603.915,329.4023 605.304,320.4303 612.479,316.3823 C619.656,312.3363 619.827,307.6013 619.307,304.6493 C618.784,301.6983 615.479,293.3573 618.309,288.2763 C621.139,283.1963 614.237,273.3183 614.237,273.3183 C614.237,273.3183 616.424,285.9723 613.159,291.1813 C609.895,296.3903 611.949,298.5913 611.599,303.3433 C611.25,308.0963 602.145,315.6783 602.478,321.6503 C602.81,327.6233 603.915,329.4023 603.915,329.4023" id="Fill-123" fill="#5FA532"></path>
                <path d="M364.0078,366 C364.0078,366 335.5228,329.15 298.5958,320.829 C261.6688,312.509 265.8898,293.489 249.0088,283.979 C232.1278,274.47 240.5688,254.263 215.2468,248.319 C189.9268,242.375 183.5968,225.733 167.7708,217.413 C151.9458,209.092 142.4488,239.998 145.6138,245.941 C148.7798,251.885 152.9998,326.772 152.9998,326.772 L152.9998,366 L364.0078,366 Z" id="Fill-125" fill="#A67C52"></path>
                <path d="M651.1133,319 C651.1133,319 631.1133,318 599.1133,328 C567.1133,338 529.1133,323 494.1133,323 C459.1133,323 388.1133,336 357.1133,331 C326.1133,326 331.1133,313 266.1133,322 C201.1133,331 146.3283,315.667 146.3283,315.667 L146.0003,366.035 L651.1133,366.035 L651.1133,319 Z" id="Fill-127" fill="#F3E290"></path>
                <path d="M146,350.127 C146,350.127 166,349.789 198,353.171 C230,356.554 268,351.481 303,351.481 C338,351.481 409,355.877 440,354.186 C471,352.495 466,348.098 531,351.142 C596,354.186 650.785,349 650.785,349 L651.113,366.035 L146,366.035 L146,350.127 Z" id="Fill-129" fill="#E6D792"></path>
                <polygon id="Fill-131" fill="#3C3C3B" points="144.297 366.035 152.821 366.035 152.821 131.009 144.297 131.009"></polygon>
                <polygon id="Fill-133" fill="#3C3C3B" points="646.523 366.035 655.047 366.035 655.047 131.009 646.523 131.009"></polygon>
                <polygon id="Fill-134" fill="#3C3C3B" points="142.113 399 657.888 399 657.888 361.052 142.113 361.052"></polygon>
                <path d="M657.8877,136.0132 L142.1127,136.0132 L142.1127,114.0392 C148.0857,108.9472 151.4377,106.0922 157.4097,101.0002 L642.5897,101.0002 C648.5637,106.0922 651.9117,108.9472 657.8877,114.0392 L657.8877,136.0132 Z" id="Fill-135" fill="#575756"></path>
                <polygon id="Fill-136" fill="#3C3C3B" points="148.887 131.009 651.113 131.009 651.113 116.274 148.887 116.274"></polygon>
                <path d="M201.4053,306.88 C208.9513,301.83 208.7733,296.629 207.9743,293.442 C207.1753,290.256 202.9133,281.408 205.6203,275.6 C208.3273,269.793 200.0083,259.574 200.0083,259.574 C200.0083,259.574 203.3793,273.241 200.2053,279.227 C197.0323,285.212 199.4503,287.445 199.4343,292.679 C199.4203,297.914 190.0343,307.001 190.8573,313.513 C191.6813,320.022 193.0293,321.876 193.0293,321.876 C193.0293,321.876 193.8583,311.934 201.4053,306.88 Z" id="Fill-137" fill="#5FA532"></path>
                <path d="M192.7949,324.6426 C192.7949,324.6426 196.2729,313.2566 206.3069,309.1076 C216.3389,304.9586 217.4469,298.8656 217.3259,294.9716 C217.2049,291.0796 214.4969,279.7996 219.1069,273.6606 C223.7159,267.5196 216.6479,253.7136 216.6479,253.7136 C216.6479,253.7136 217.1009,270.3986 211.9059,276.6386 C206.7109,282.8776 208.9529,286.0336 207.6099,292.1226 C206.2699,298.2116 193.0799,306.6376 192.3909,314.4066 C191.6999,322.1756 192.7949,324.6426 192.7949,324.6426" id="Fill-138" fill="#6DBD40"></path>
                <path d="M197.5869,285.9121 C196.0659,282.5491 190.1509,273.8661 190.8249,266.4031 C191.4999,258.9421 181.8579,250.0001 181.8579,250.0001 C181.8579,250.0001 188.3329,264.4431 187.3199,272.2561 C186.3079,280.0691 188.9119,281.8311 190.3119,287.7791 C191.7109,293.7291 186.3909,307.0551 188.8289,314.1831 C191.2679,321.3151 192.8829,322.9861 192.8829,322.9861 C192.8829,322.9861 190.8869,311.4301 195.7729,303.2761 C200.6559,295.1241 199.1069,289.2751 197.5869,285.9121" id="Fill-139" fill="#6DBD40"></path>
                <path d="M192.835,324.6426 C192.835,324.6426 189.726,316.0836 181.878,313.3776 C174.029,310.6726 172.94,306.0566 172.881,303.0696 C172.82,300.0806 174.453,291.3126 170.683,286.8276 C166.91,282.3396 171.782,271.4306 171.782,271.4306 C171.782,271.4306 172.091,284.2336 176.314,288.7686 C180.539,293.3046 178.945,295.8276 180.212,300.4286 C181.478,305.0306 191.911,310.8636 192.744,316.7836 C193.579,322.7036 192.835,324.6426 192.835,324.6426" id="Fill-140" fill="#6DBD40"></path>
                <path d="M193.002,320.4023 C193.002,320.4023 191.613,311.4303 184.438,307.3823 C177.262,303.3363 177.091,298.6013 177.611,295.6493 C178.133,292.6983 181.439,284.3573 178.608,279.2763 C175.778,274.1963 182.68,264.3183 182.68,264.3183 C182.68,264.3183 180.494,276.9723 183.759,282.1813 C187.022,287.3903 184.968,289.5913 185.318,294.3433 C185.667,299.0963 194.772,306.6783 194.439,312.6503 C194.107,318.6233 193.002,320.4023 193.002,320.4023" id="Fill-141" fill="#5FA532"></path>
                <path d="M363.0293,331.876 C363.0293,331.876 363.8583,321.934 371.4053,316.88 C378.9513,311.83 378.7733,306.629 377.9743,303.442 C377.1753,300.256 372.9133,291.408 375.6203,285.6 C378.3273,279.793 370.0083,269.574 370.0083,269.574 C370.0083,269.574 373.3793,283.241 370.2053,289.227 C367.0323,295.212 369.4503,297.445 369.4343,302.679 C369.4203,307.914 360.0343,317.001 360.8573,323.513 C361.6813,330.022 363.0293,331.876 363.0293,331.876" id="Fill-142" fill="#5FA532"></path>
                <path d="M362.7949,334.6426 C362.7949,334.6426 366.2729,323.2566 376.3069,319.1076 C386.3389,314.9586 387.4469,308.8656 387.3259,304.9716 C387.2049,301.0796 384.4969,289.7996 389.1069,283.6606 C393.7159,277.5196 386.6479,263.7136 386.6479,263.7136 C386.6479,263.7136 387.1009,280.3986 381.9059,286.6386 C376.7109,292.8776 378.9529,296.0336 377.6099,302.1226 C376.2699,308.2116 363.0799,316.6376 362.3909,324.4066 C361.6999,332.1756 362.7949,334.6426 362.7949,334.6426" id="Fill-143" fill="#6DBD40"></path>
                <path d="M367.5869,295.9121 C366.0659,292.5491 360.1509,283.8661 360.8249,276.4031 C361.4999,268.9421 351.8579,260.0001 351.8579,260.0001 C351.8579,260.0001 358.3329,274.4431 357.3199,282.2561 C356.3079,290.0691 358.9119,291.8311 360.3119,297.7791 C361.7109,303.7291 356.3909,317.0551 358.8289,324.1831 C361.2679,331.3151 362.8829,332.9861 362.8829,332.9861 C362.8829,332.9861 360.8869,321.4301 365.7729,313.2761 C370.6559,305.1241 369.1069,299.2751 367.5869,295.9121" id="Fill-144" fill="#6DBD40"></path>
                <path d="M362.835,334.6426 C362.835,334.6426 359.726,326.0836 351.878,323.3776 C344.029,320.6726 342.94,316.0566 342.881,313.0696 C342.82,310.0806 344.453,301.3126 340.683,296.8276 C336.91,292.3396 341.782,281.4306 341.782,281.4306 C341.782,281.4306 342.091,294.2336 346.314,298.7686 C350.539,303.3046 348.945,305.8276 350.212,310.4286 C351.478,315.0306 361.911,320.8636 362.744,326.7836 C363.579,332.7036 362.835,334.6426 362.835,334.6426" id="Fill-145" fill="#6DBD40"></path>
                <path d="M363.002,330.4023 C363.002,330.4023 361.613,321.4303 354.438,317.3823 C347.262,313.3363 347.091,308.6013 347.611,305.6493 C348.133,302.6983 351.439,294.3573 348.608,289.2763 C345.778,284.1963 352.68,274.3183 352.68,274.3183 C352.68,274.3183 350.494,286.9723 353.759,292.1813 C357.022,297.3903 354.968,299.5913 355.318,304.3433 C355.667,309.0963 364.772,316.6783 364.439,322.6503 C364.107,328.6233 363.002,330.4023 363.002,330.4023" id="Fill-146" fill="#5FA532"></path>
                <path d="M563,244.8955 C563.55,244.7775 563.044,244.7635 563,244.8955" id="Fill-147" fill="#42210B"></path>
                <path d="M531.8662,251.835 C533.3602,250.597 534.7762,249.275 536.2412,248.005 C538.1932,246.312 540.0222,247.036 542.7372,246.57 C546.7482,245.882 550.8302,245.778 554.8962,245.951 C559.4282,246.144 564.2152,245.514 568.4002,243.704 C566.5972,244.076 564.8012,244.51 563.0002,244.896 C563.0962,244.608 560.2682,244.922 560.0852,244.937 C558.4542,245.069 556.7992,245.013 555.1832,244.77 C553.8582,244.571 552.5072,244.507 551.1942,244.777 C549.6092,245.103 548.1202,244.894 546.6442,244.48 C545.3382,244.113 544.3472,244.7 543.1612,244.909 C542.0722,245.101 541.0732,244.811 540.0112,244.86 C544.1402,241.607 549.4122,240.836 554.3232,239.37 C559.8242,237.727 565.1262,235.692 570.1112,232.827 C567.8162,233.751 565.6082,234.883 563.3032,235.793 C561.5932,236.468 559.8402,236.749 558.0512,237.327 C555.5362,238.141 552.9632,238.765 550.3752,239.293 C548.2322,239.73 546.1152,239.996 544.1552,241.027 C542.4692,241.914 540.7692,242.937 539.1392,243.918 C537.3342,245.004 535.4722,245.793 533.8642,247.282 C532.5252,248.522 531.5622,249.921 530.0842,251.029 C528.7672,252.016 527.4482,252.996 526.1702,254.119 C526.4452,251.475 526.6802,248.681 527.8352,246.246 C528.9172,243.962 530.6452,241.976 532.4502,240.235 C536.6022,236.231 541.5852,233.218 545.8542,229.348 C550.1282,225.473 553.4752,220.689 554.0332,214.807 C554.5532,209.304 552.8152,203.753 553.8152,198.277 C554.9672,191.976 560.1452,187.609 562.6892,181.933 C560.2912,186.098 556.6402,189.387 554.3122,193.594 C551.4752,198.72 552.1302,204.309 552.2522,209.927 C552.3722,215.483 551.0532,220.33 547.2822,224.526 C543.8972,228.293 539.5792,231.025 535.6332,234.14 C535.7242,233.31 530.5232,236.325 530.1022,236.632 C527.8422,238.283 525.8482,240.294 524.3132,242.64 C522.1082,246.007 521.5912,249.96 521.1422,253.887 C520.8092,256.809 520.6612,260.874 518.2812,263.061 C516.5322,264.668 513.8072,264.75 511.5952,265.191 C508.4862,265.812 505.6912,267.038 503.0332,268.752 C500.0852,270.652 497.4052,272.949 494.3942,274.753 C491.6192,276.416 488.5442,277.603 485.5232,278.734 C490.1792,275.085 493.9092,270.894 496.7082,265.659 C499.4222,260.581 500.9382,254.981 503.3612,249.773 C504.6232,247.063 505.7632,244.42 506.4322,241.49 C506.7322,240.172 506.8042,238.767 507.3632,237.55 C507.9342,236.308 508.7952,235.224 509.6342,234.157 C511.3432,231.981 513.3452,230.903 515.4722,229.205 C517.7232,227.408 519.4482,225.183 520.3092,222.417 C519.4752,223.624 518.9562,225.004 517.9012,225.931 C516.6762,227.006 515.5652,228.149 514.1062,228.932 C512.8762,229.592 511.6882,230.358 510.7402,231.384 C510.3072,231.853 509.8002,232.272 509.2422,232.614 C508.7082,232.94 508.1222,233.096 507.6122,233.583 C508.2732,227.386 509.1532,221.354 512.7332,216.081 C509.4292,219.894 507.8872,224.915 507.2062,229.833 C506.9692,231.546 506.1632,233.228 505.8832,235.109 C505.6892,236.404 505.2682,237.242 504.8862,238.45 C504.7262,238.954 503.9282,240.729 504.9272,240.59 C503.8112,245.102 501.3372,248.973 499.2772,253.089 C497.4722,256.698 496.6602,260.451 495.2122,264.181 C494.6332,265.67 493.7002,266.983 492.5882,268.131 C491.7402,269.007 490.8772,270.242 489.8662,270.979 C489.3222,271.375 488.9472,271.412 488.3012,271.736 C486.4832,272.647 484.8082,274.088 483.2402,275.358 C481.8372,276.496 480.6182,278.011 479.2212,279.048 C477.8252,280.085 476.0572,281.155 474.4822,281.632 C472.3382,282.28 470.5052,283.481 468.5342,284.495 C466.4582,285.564 464.4252,286.406 462.1272,286.793 C459.7092,287.2 457.2822,287.575 454.8732,288.029 C450.4662,288.858 446.1162,290.064 441.9902,291.838 C440.6532,292.413 439.3662,293.163 437.9802,293.618 C435.1412,294.55 431.9482,294.336 429.1392,294.089 C427.3702,293.934 425.6232,293.633 423.8772,293.303 C421.7642,292.905 419.2952,292.827 417.2212,292.152 C414.8782,291.389 412.7092,289.877 410.4062,288.969 C407.9362,287.994 405.3162,287.338 402.6432,287.457 C407.2062,283.501 411.5362,279.205 414.7792,274.082 C417.7272,269.424 417.6752,263.064 421.5822,259.039 C422.8942,257.688 424.5572,256.692 426.2102,255.82 C427.5092,255.134 428.8482,254.526 430.1752,253.896 C431.5302,253.251 433.2472,251.962 434.7052,251.643 C435.5902,251.448 436.8842,251.479 437.7922,251.51 C439.3382,251.564 440.8242,251.354 442.3242,250.97 C445.5782,250.137 448.2302,248.602 451.0652,246.873 C454.0732,245.038 457.1702,243.448 460.0472,241.398 C463.1402,239.195 466.1502,236.866 469.4622,234.991 C467.9122,235.566 466.4412,236.459 465.0492,237.338 C463.9762,238.015 462.9342,238.384 461.8852,239.085 C460.3272,240.124 458.8142,241.192 457.1702,242.094 C455.7522,242.872 454.1722,243.374 452.8292,244.279 C451.8962,244.909 451.1122,245.814 450.1362,246.367 C448.8012,247.123 447.5302,247.264 446.1482,247.588 C444.7562,247.915 443.5792,248.709 442.3072,249.203 C440.8942,249.753 439.5232,249.466 438.0522,249.661 C443.8212,245.851 446.5382,240.505 447.5922,233.792 C448.6242,227.211 449.0582,220.401 455.2312,216.461 C450.6162,218.209 448.2162,222.773 447.0892,227.305 C446.7962,228.48 446.5682,229.668 446.3552,230.859 C446.1842,231.815 446.0712,233.297 445.6652,233.897 C445.1742,234.622 444.6002,235.231 444.2102,236.097 C443.6472,237.343 443.2082,238.642 442.6162,239.876 C440.3232,244.655 435.6942,247.036 430.9312,248.827 C426.3362,250.556 420.4692,251.496 417.1602,255.434 C419.1382,244.377 422.3222,233.635 426.1532,223.082 C427.0172,223.591 427.3672,221.006 427.6442,220.505 C428.4762,218.998 429.7082,217.571 430.6352,216.098 C432.8332,212.603 434.6732,209.018 436.6282,205.393 C438.3662,202.171 440.1012,199.134 442.2002,196.124 C444.4622,192.88 446.8822,189.219 446.4542,185.073 C446.3142,186.642 446.1192,188.077 445.5192,189.555 C444.8672,191.163 444.0222,192.057 443.0602,193.402 C440.8432,196.507 437.9562,199.465 436.3532,202.952 C435.8012,204.154 435.5232,205.514 434.8952,206.676 C434.2442,207.881 433.2262,209.06 432.3422,209.925 C431.2672,210.976 430.4952,212.272 429.9152,213.658 C429.3392,215.034 428.5182,216.056 427.6552,217.228 C429.1892,206.613 424.4842,196.035 429.1942,185.786 C427.5012,188.351 426.6232,191.431 426.2612,194.46 C426.1022,195.78 426.2822,197.196 426.0812,198.494 C425.8972,199.678 425.5582,201.002 425.6332,202.407 C425.8272,206.085 426.2902,209.716 425.9612,213.407 C425.6352,217.058 424.1002,220.13 423.1842,223.619 C422.8732,224.805 422.6682,226.02 422.4042,227.217 C422.0332,228.905 421.6432,230.034 420.8822,231.569 C420.2492,232.844 419.7702,234.508 418.9382,235.48 C418.0442,236.524 417.3982,237.586 416.8702,238.877 C416.2212,240.457 415.7062,242.19 415.6062,243.903 C415.5642,244.615 415.6442,245.191 415.5172,245.865 C415.3342,246.834 415.0132,247.751 414.8882,248.739 C414.7142,250.124 413.9952,251.259 413.7742,252.709 C413.5192,254.388 413.6072,256.146 413.6502,257.838 C413.6882,259.327 414.0872,260.733 414.2522,262.199 C414.4102,263.601 414.0472,265.189 413.8412,266.578 C413.4272,269.371 410.2132,271.53 408.3622,273.502 C407.6312,274.281 407.3032,273.911 406.3332,274.198 C405.6372,274.403 404.9932,274.807 404.3822,275.189 C403.2082,275.919 402.0972,276.743 401.0712,277.67 C399.5542,279.039 398.0182,280.546 396.8532,282.259 C396.4842,282.801 396.2822,283.419 395.9502,283.962 C395.5382,284.634 394.7312,285.024 394.0472,285.533 C392.9642,286.336 391.6542,287.981 390.5002,288.45 C390.1532,288.591 389.4322,288.523 389.0122,288.663 C388.0712,288.977 387.1792,289.466 386.3282,289.968 C384.9382,290.787 383.7372,291.915 382.2872,292.594 C380.9452,293.223 379.6592,293.965 378.4142,294.769 C372.2222,298.766 367.1302,304.225 362.2992,309.728 C359.8122,312.561 357.3562,315.42 354.9002,318.278 C354.2472,319.039 353.5942,319.802 352.9692,320.586 C352.5232,321.147 352.1292,322.06 351.6232,322.523 C350.3912,323.649 348.1462,324.375 346.6162,325.013 C343.5902,326.274 340.4262,326.619 337.1702,326.815 C336.2952,326.868 335.1602,327.07 334.3892,326.805 C333.9402,326.649 333.5002,326.317 333.0322,326.15 C331.2112,325.5 329.2342,325.172 327.3352,324.838 C332.7692,320.973 332.9722,314.419 335.6892,308.911 C337.2992,305.649 340.1172,303.321 342.6542,300.803 C345.5362,297.941 348.0042,294.778 349.0552,290.787 C350.1352,286.695 349.7762,282.384 349.5592,278.208 C349.5102,277.252 349.3812,276.264 349.4182,275.307 C349.4602,274.231 349.8232,273.85 350.4132,273.016 C351.5262,271.444 352.4922,269.775 353.6352,268.223 C355.5232,265.657 357.7562,263.442 360.1922,261.396 C363.2672,258.813 366.2352,256.246 369.8172,254.378 C371.5612,253.468 373.6962,252.044 375.6232,251.712 C377.5952,251.371 380.1282,251.393 382.0942,251.74 C386.5712,252.53 390.8662,253.254 394.9712,250.702 C394.0172,250.959 393.1262,251.396 392.1542,251.626 C391.2592,251.839 390.8592,251.746 390.0302,251.701 C388.0222,251.593 386.2952,251.663 384.3522,250.953 C382.8412,250.399 381.8752,250.695 380.2422,250.575 C379.7522,250.54 379.2742,250.393 378.8142,250.218 C378.1412,249.963 378.2282,250.385 378.7622,249.721 C379.0332,249.385 379.6262,249.144 379.9742,248.895 C383.4392,246.419 386.0572,243.383 388.0932,239.655 C390.0062,236.151 391.7962,232.026 395.6222,230.228 C392.7002,230.998 390.6552,233.758 389.1372,236.185 C388.5852,237.069 388.0162,238.221 387.4282,238.878 C386.4702,239.949 385.6012,241.032 384.7212,242.198 C383.3712,243.987 381.6502,245.478 379.7892,246.714 C377.2682,248.391 374.5592,249.206 371.8102,250.369 C369.7382,251.245 368.0122,252.658 366.2922,254.076 C365.4202,254.796 364.4452,255.371 363.4222,255.854 C362.6172,256.232 361.8172,256.686 361.0542,257.173 C360.7202,257.382 360.3952,257.604 360.0792,257.837 C359.9262,257.726 359.7532,257.693 359.5622,257.739 C356.9842,258.398 354.6962,260.362 353.2832,262.542 C353.1142,262.802 353.0012,263.089 352.8722,263.37 C352.5662,264.042 352.1242,264.481 351.6452,265.072 C351.1962,265.628 350.8932,266.295 350.4612,266.849 C350.1042,267.306 349.7062,267.481 349.2962,267.939 C349.2272,262.377 348.5422,257.206 346.6432,251.961 C346.0082,250.204 344.5212,247.6 345.0972,245.701 C345.6872,243.756 347.8172,242.04 349.1842,240.628 C356.7562,232.81 365.5832,225.868 371.3452,216.494 C374.4512,211.443 376.3692,205.732 376.4102,199.769 C375.5792,204.335 374.4222,208.609 372.1192,212.683 C369.7992,216.79 366.7052,220.324 363.6022,223.846 C363.4172,223.081 359.2272,226.486 359.0032,226.681 C356.9962,228.415 355.1022,230.276 353.1482,232.069 C357.6102,224.95 358.9022,217.148 359.0402,208.897 C359.1982,199.501 363.2972,190.843 364.6892,181.635 C363.7972,184.822 363.4302,188.384 362.0802,191.421 C360.7692,194.369 359.7892,197.554 358.9872,200.751 C358.0962,204.301 357.5952,207.959 357.7942,211.614 C357.9432,214.36 357.6162,217.12 356.4302,219.564 C354.9722,222.571 354.6662,226.028 353.0012,228.904 C351.4862,231.521 349.5582,234.124 347.8012,236.642 C346.0242,239.186 342.6442,241.042 341.2532,244.15 C339.7892,247.421 341.4782,251.202 342.3022,254.436 C343.3632,258.599 343.2962,262.985 343.8772,267.233 C344.0832,268.736 344.3712,270.229 344.6132,271.727 C344.9262,273.657 345.7252,275.892 345.0252,277.755 C347.2072,277.794 344.2612,287.537 343.6682,289.063 C343.5092,289.474 343.3652,289.946 343.1392,290.329 C342.6792,291.107 342.6532,290.818 341.7882,291.174 C339.6272,292.062 337.4622,294.207 335.7042,295.701 C336.8312,289.76 334.6962,284.959 330.1542,281.131 C328.5152,279.75 326.6372,278.207 325.7322,276.202 C324.8662,274.281 324.9072,271.957 323.3892,270.345 C323.1742,270.116 322.9482,269.913 322.6862,269.741 C322.0192,269.302 321.9732,269.547 322.2252,268.735 C322.6672,267.31 323.2162,266.106 323.3742,264.575 C323.5242,263.112 323.5542,261.632 323.3762,260.171 C323.1372,258.204 323.0762,256.224 323.1532,254.243 C323.3092,250.206 322.6562,246.051 323.4642,242.02 C322.7422,243.698 322.6892,245.788 322.3782,247.475 C321.9632,249.724 322.2082,252.189 321.9052,254.485 C321.7062,256 322.1912,257.101 322.2572,258.551 C322.3382,260.351 321.2662,261.734 321.4242,263.549 C321.4992,264.419 321.7212,265.317 321.3962,266.184 C321.1572,266.819 320.7692,267.517 320.5402,268.226 C320.1852,269.326 319.2232,269.125 318.1702,269.017 C317.5382,268.952 317.1762,268.823 316.6602,268.517 C313.0532,266.366 309.8662,262.69 308.8542,258.582 C308.9232,260.847 309.9862,263.09 311.3402,264.864 C311.8612,265.549 312.6302,266.288 312.9642,266.893 C313.5712,267.988 314.2812,268.732 315.3052,269.512 C316.1532,270.156 316.8672,270.55 317.9312,270.718 C318.9022,270.872 319.9912,270.732 320.9112,271.118 C321.2262,271.251 321.4912,271.381 321.7282,271.637 C321.7152,271.625 321.7002,271.614 321.6852,271.604 C323.1252,273.455 322.2342,276.111 323.6732,278.042 C324.8772,279.657 326.8512,280.377 327.9402,282.082 C328.3212,282.679 328.7442,283.249 329.1772,283.81 C329.7712,284.581 329.4542,284.526 329.6552,285.273 C329.9522,286.373 330.4122,287.368 330.9712,288.363 C331.3432,289.024 332.1802,289.784 332.4422,290.431 C332.6292,290.89 332.5852,292.213 332.5342,292.703 C332.4642,293.389 332.1812,293.737 331.9672,294.481 C331.5962,295.763 331.6652,297.157 331.5432,298.47 C331.4642,299.316 331.5572,299.729 331.1652,300.438 C330.8362,301.03 330.3942,301.566 330.0582,302.16 C329.4932,303.158 329.0312,304.221 328.7702,305.341 C328.6282,305.953 328.7012,306.614 328.5732,307.202 C328.3972,308.013 327.8752,308.841 327.5642,309.647 C326.9842,311.149 326.5852,312.708 326.1892,314.267 C326.0682,314.743 326.0162,315.545 325.7552,315.944 C325.5372,316.274 324.8472,316.593 324.4662,316.894 C323.0012,318.045 321.5392,319.364 319.7842,320.059 C318.0172,320.758 316.1822,320.8 314.3622,321.257 C313.1012,321.574 311.9332,322.115 310.7652,322.686 C309.2152,323.441 308.2032,323.777 306.4652,323.83 C304.9052,323.877 303.3392,323.737 301.7742,323.751 C298.4402,323.779 295.1032,324.128 291.8432,324.829 C290.1372,325.196 288.5052,325.721 286.8962,326.322 C285.5782,326.815 284.6292,327.986 284.4102,329.378 L283.8782,332.756 C283.4142,335.709 286.3102,338.091 289.1022,337.024 C289.1232,337.017 289.1422,337.009 289.1632,337.001 C291.8452,335.975 294.4702,334.779 297.2912,334.182 C298.7352,333.875 300.3622,333.525 301.8392,333.626 C303.4282,333.735 305.0452,334.133 306.6242,334.354 C312.7112,335.204 318.8452,335.631 324.9472,336.367 C331.2232,337.125 337.7152,337.895 344.0162,336.991 C348.1342,336.401 351.9762,334.731 355.5242,332.605 C356.1532,332.228 356.7722,331.834 357.3832,331.429 C357.8172,331.139 358.6342,330.308 359.1612,330.19 C359.9182,330.023 361.1492,330.613 362.0132,330.672 C364.8262,330.863 367.2912,329.462 370.0202,329.463 C373.1452,329.465 376.1592,329.617 379.3032,329.341 C382.6952,329.042 386.1012,328.694 389.5122,328.815 C393.7812,328.966 397.6472,330.166 401.4412,332.032 C407.4302,334.978 413.0852,338.503 419.8422,339.343 C421.4012,339.536 422.9342,339.452 424.4932,339.524 C425.9402,339.591 427.4292,340.424 428.7662,341.074 C431.3522,342.331 433.9012,343.658 436.4022,345.078 C442.2752,348.412 449.3012,350.829 456.0942,351.601 C462.7082,352.353 469.3212,350.986 475.9452,351.308 C479.0902,351.461 482.2282,351.995 485.1502,353.201 C482.9202,351.804 480.2322,351.092 477.6512,350.708 C476.4162,350.523 475.1102,350.612 473.8922,350.403 C473.0432,350.259 472.1312,349.795 471.0632,349.746 C465.5162,349.491 460.2832,350.209 454.8362,348.654 C452.8302,348.082 450.8232,347.994 448.7742,347.72 C447.8682,347.6 446.7302,347.525 445.8872,347.155 C444.6832,346.627 443.5652,345.65 442.4082,344.994 C441.8132,344.657 441.5902,344.444 441.2572,344.04 C441.0602,343.803 440.9142,343.534 440.6992,343.3 C439.6512,342.155 438.0642,341.314 436.8382,340.659 C436.0092,340.218 435.1252,339.868 434.2012,339.695 C433.1162,339.491 432.3982,339.033 431.3632,338.563 C437.8702,337.116 444.0472,334.282 450.6142,333.112 C457.0802,331.96 463.8342,333.727 470.1882,331.689 C476.5012,329.663 481.1222,324.459 486.0512,320.308 C491.0272,316.115 496.7202,312.806 503.4472,313.214 C499.1282,312.227 494.5932,313.376 490.7362,315.374 C488.7252,316.415 486.8472,317.709 485.0572,319.091 C484.1182,319.816 483.1982,320.568 482.2912,321.334 C481.6922,321.84 480.8872,322.842 480.1742,323.172 C479.9392,323.28 479.2232,323.231 478.7472,323.412 C477.6502,323.83 476.6252,324.525 475.6342,325.139 C473.6372,326.377 471.6372,327.705 469.3722,328.406 C464.5702,329.893 459.2812,328.775 454.3782,328.556 C456.1842,327.006 457.4372,324.997 459.1812,323.399 C460.9962,321.737 463.1212,320.474 465.0292,318.929 C468.9222,315.776 472.5122,311.628 477.3802,309.969 C475.4222,310.101 473.4552,311.145 471.8512,312.203 C471.6082,312.363 471.3372,312.619 471.0812,312.741 C470.5002,313.017 470.9092,312.68 470.3702,312.857 C469.2732,313.22 468.4792,313.959 467.5892,314.667 C465.9202,315.994 464.1572,317.235 462.2552,318.206 C460.7012,318.998 459.4832,319.512 458.4412,320.986 C457.8362,321.844 457.3902,322.704 456.5642,323.3 C455.8432,323.819 454.7512,324.581 454.0772,324.772 C453.2262,325.013 452.5332,325.037 451.7112,325.602 C450.8692,326.179 450.4312,326.889 449.8032,327.642 C449.3072,328.236 448.5782,328.674 447.7532,328.897 C445.4592,329.514 442.9552,329.751 440.6102,330.155 C436.0342,330.946 432.0542,332.961 427.7192,334.452 C425.5222,335.207 423.6022,335.409 421.3302,335.237 C420.6672,335.188 420.0112,335.035 419.3942,334.785 C416.8742,333.762 414.5982,332.317 412.2782,330.95 C411.3792,330.421 411.6582,330.239 411.2202,329.396 C410.3242,327.673 408.2282,326.245 406.6542,325.193 C403.1612,322.857 398.9832,321.148 394.7132,321.374 C393.7952,321.422 392.9772,321.831 392.1222,321.934 C391.0692,322.06 389.7432,321.61 388.6482,321.59 C387.2642,321.563 385.8792,321.664 384.5122,321.88 C384.0702,321.949 383.3442,322.239 382.9062,322.189 C382.7482,322.17 382.4932,321.863 382.2762,321.818 C379.8542,321.32 377.3652,321.533 374.9342,321.904 C372.3632,322.296 369.9202,322.812 367.3272,323.076 C377.4542,312.922 386.7782,298.401 401.8042,295.365 C407.0512,294.306 411.6712,296.636 416.6902,297.87 C423.8342,299.626 431.6802,302.322 439.1082,301.126 C441.2132,300.787 443.1512,299.996 445.1612,299.33 C448.8212,298.116 452.5702,297.216 456.3512,296.476 C459.8552,295.789 463.4132,295.246 466.8352,294.207 C469.1712,293.497 471.3162,292.435 473.5762,291.563 C474.8002,291.09 475.7922,291.16 477.0132,291.412 C478.2052,291.658 479.4212,291.775 480.6372,291.791 C484.9522,291.848 489.2272,291.125 493.4762,290.475 C499.1502,289.606 504.9862,288.189 510.7172,289.149 C513.7782,289.663 517.1422,290.82 520.2632,290.194 C521.9442,289.857 523.4262,289.076 524.9352,288.309 C526.7802,287.372 528.7882,286.667 530.7092,285.894 C532.3792,285.221 533.7832,284.857 535.5542,285.376 C537.3802,285.91 539.0302,286.983 540.7312,287.811 C544.4022,289.598 548.2742,290.64 551.9552,288.27 C550.2212,288.951 548.0042,289.844 546.1042,289.231 C544.4062,288.684 542.3572,287.669 540.7662,286.718 C539.0062,285.665 537.3512,284.122 535.2222,283.976 C533.7252,283.873 531.6812,284.139 530.2522,284.552 C533.8552,281.762 537.3942,279.946 541.6962,278.428 C547.0522,276.537 552.5682,275.129 557.8032,272.9 C554.9022,273.394 552.0272,274.312 549.1662,274.971 C548.2162,275.189 547.2662,275.411 546.3242,275.661 C545.3712,275.914 544.4132,276.163 543.4702,276.457 C542.9622,276.616 542.6962,276.596 542.3632,276.562 C537.8722,276.091 533.1182,279.156 529.4282,281.515 C526.9812,283.078 524.4762,284.878 521.6482,285.677 C519.6652,286.238 517.5812,285.926 515.5512,285.979 C513.3822,286.034 510.9632,286.412 508.8232,286.064 C507.5692,285.86 506.4082,285.224 505.1082,285.063 C503.9812,284.924 502.2792,285.306 501.3672,284.914 C500.8882,284.709 500.5422,284.305 499.9472,284.145 C499.1952,283.941 498.3922,283.879 497.6162,283.856 C496.0532,283.808 494.4802,283.969 492.9552,284.304 C491.6532,284.589 490.6292,285.085 489.4442,285.624 C488.1632,286.206 486.2902,286.051 484.8172,286.365 C489.6972,284.296 494.6772,282.233 498.9982,279.115 C502.5222,276.572 505.7012,273.23 509.7232,271.456 C513.9822,269.579 518.9332,270.049 522.3282,266.365 C523.3242,265.284 524.0472,263.985 524.5782,262.623 C524.7812,262.104 524.9452,261.575 525.0932,261.038 C525.2892,260.324 525.3442,258.585 526.0332,258.564 C525.8872,257.324 525.9272,256.718 526.8702,255.751 C528.2912,254.294 530.2832,253.146 531.8662,251.835" id="Fill-148" fill="#42210B"></path>
                <path d="M216.6426,349 L253.1436,349 C253.1436,349 257.8086,333.909 250.6736,333.085 C243.5386,332.262 247.1076,338.299 243.2626,338.299 C239.4206,338.299 251.9006,304.268 235.6426,306.463 C219.3866,308.658 232.8356,336.378 228.1686,337.475 C223.5036,338.572 223.7796,318.688 212.8006,324.787 C201.8226,330.887 216.6426,349 216.6426,349" id="Fill-149" fill="#AAB72B"></path>
                <path d="M528.8066,352 L565.5486,352 C565.5486,352 572.8966,342.871 567.9986,338.64 C563.0986,334.407 563.0986,340.421 558.8686,338.64 C554.6366,336.858 565.5466,323.942 556.4176,321.492 C547.2896,319.044 550.4076,331.947 546.1756,331.952 C541.9456,331.958 548.6246,306.35 537.9366,307.02 C527.2476,307.688 538.3816,332.971 533.9286,334.58 C529.4756,336.188 533.0386,324.389 525.6896,328.174 C518.3406,331.958 528.8066,352 528.8066,352" id="Fill-150" fill="#006837"></path>
            </g>
        </g>
    </g>
</svg>