<?xml version="1.0" encoding="UTF-8"?>
<svg width="516px" height="298px" viewBox="0 0 516 298" version="1.1" xmlns="http://www.w3.org/2000/svg" xmlns:xlink="http://www.w3.org/1999/xlink">
    <!-- Generator: Sketch 54.1 (76490) - https://sketchapp.com -->
    <title>Group 86</title>
    <desc>Created with Sketch.</desc>
    <defs>
        <polygon id="path-1" points="0 500 800 500 800 0 0 0"></polygon>
    </defs>
    <g id="Page-1" stroke="none" stroke-width="1" fill="none" fill-rule="evenodd">
        <g id="Artboard-1" transform="translate(-142.000000, -101.000000)">
            <g id="Group-86">
                <polygon id="Fill-2" fill="#7FCEEF" points="148 374 651 374 651 144 148 144"></polygon>
                <path d="M180.5459,241.6172 C180.5459,241.6172 181.1529,234.3382 186.6779,230.6392 C192.2019,226.9422 192.0719,223.1352 191.4869,220.8022 C190.9019,218.4702 187.7819,211.9922 189.7629,207.7412 C191.7449,203.4902 185.6559,196.0092 185.6559,196.0092 C185.6559,196.0092 188.1229,206.0142 185.7989,210.3952 C183.4769,214.7772 185.2469,216.4122 185.2349,220.2432 C185.2249,224.0752 178.3539,230.7282 178.9559,235.4942 C179.5599,240.2612 180.5459,241.6172 180.5459,241.6172" id="Fill-3" fill="#5FA532"></path>
                <path d="M180.3745,243.6421 C180.3745,243.6421 182.9205,235.3081 190.2655,232.2701 C197.6105,229.2331 198.4215,224.7721 198.3325,221.9221 C198.2445,219.0721 196.2615,210.8151 199.6365,206.3201 C203.0105,201.8261 197.8355,191.7191 197.8355,191.7191 C197.8355,191.7191 198.1675,203.9331 194.3655,208.5011 C190.5625,213.0691 192.2035,215.3781 191.2205,219.8361 C190.2395,224.2941 180.5835,230.4621 180.0785,236.1491 C179.5735,241.8371 180.3745,243.6421 180.3745,243.6421" id="Fill-5" fill="#6DBD40"></path>
                <path d="M183.8828,215.29 C182.7688,212.828 178.4398,206.472 178.9328,201.008 C179.4268,195.546 172.3688,189 172.3688,189 C172.3688,189 177.1078,199.573 176.3668,205.292 C175.6258,211.012 177.5318,212.302 178.5568,216.656 C179.5808,221.012 175.6868,230.767 177.4708,235.986 C179.2568,241.207 180.4388,242.43 180.4388,242.43 C180.4388,242.43 178.9778,233.97 182.5548,228.001 C186.1298,222.033 184.9948,217.752 183.8828,215.29" id="Fill-7" fill="#6DBD40"></path>
                <path d="M180.4043,243.6426 C180.4043,243.6426 178.1283,237.3776 172.3823,235.3956 C166.6373,233.4156 165.8403,230.0366 165.7963,227.8496 C165.7523,225.6626 166.9473,219.2436 164.1873,215.9596 C161.4253,212.6746 164.9923,204.6886 164.9923,204.6886 C164.9923,204.6886 165.2173,214.0606 168.3093,217.3806 C171.4023,220.7016 170.2363,222.5476 171.1633,225.9166 C172.0903,229.2856 179.7283,233.5556 180.3383,237.8896 C180.9483,242.2226 180.4043,243.6426 180.4043,243.6426" id="Fill-9" fill="#6DBD40"></path>
                <path d="M180.5264,240.5386 C180.5264,240.5386 179.5094,233.9706 174.2564,231.0076 C169.0034,228.0446 168.8784,224.5786 169.2594,222.4176 C169.6414,220.2576 172.0614,214.1516 169.9894,210.4326 C167.9174,206.7126 172.9694,199.4816 172.9694,199.4816 C172.9694,199.4816 171.3694,208.7456 173.7594,212.5586 C176.1484,216.3726 174.6444,217.9836 174.9014,221.4626 C175.1564,224.9416 181.8214,230.4926 181.5784,234.8636 C181.3364,239.2356 180.5264,240.5386 180.5264,240.5386" id="Fill-11" fill="#5FA532"></path>
                <path d="M530.0288,290.876 C530.0288,290.876 530.8588,280.934 538.4058,275.88 C545.9518,270.83 545.7728,265.629 544.9738,262.442 C544.1748,259.256 539.9138,250.408 542.6198,244.6 C545.3268,238.793 537.0088,228.574 537.0088,228.574 C537.0088,228.574 540.3788,242.242 537.2048,248.227 C534.0318,254.212 536.4498,256.445 536.4348,261.679 C536.4198,266.914 527.0338,276.001 527.8578,282.513 C528.6818,289.022 530.0288,290.876 530.0288,290.876" id="Fill-13" fill="#5FA532"></path>
                <path d="M529.7949,293.6426 C529.7949,293.6426 533.2719,282.2566 543.3059,278.1076 C553.3389,273.9586 554.4469,267.8656 554.3259,263.9716 C554.2049,260.0796 551.4969,248.7996 556.1069,242.6606 C560.7159,236.5196 553.6469,222.7136 553.6469,222.7136 C553.6469,222.7136 554.1009,239.3986 548.9059,245.6386 C543.7119,251.8776 545.9529,255.0336 544.6109,261.1226 C543.2699,267.2116 530.0799,275.6376 529.3909,283.4066 C528.6999,291.1756 529.7949,293.6426 529.7949,293.6426" id="Fill-15" fill="#6DBD40"></path>
                <path d="M534.5874,254.9121 C533.0664,251.5491 527.1514,242.8661 527.8254,235.4031 C528.5004,227.9421 518.8584,219.0001 518.8584,219.0001 C518.8584,219.0001 525.3324,233.4431 524.3204,241.2561 C523.3074,249.0691 525.9124,250.8301 527.3124,256.7791 C528.7104,262.7291 523.3914,276.0551 525.8294,283.1831 C528.2684,290.3151 529.8824,291.9861 529.8824,291.9861 C529.8824,291.9861 527.8874,280.4301 532.7734,272.2761 C537.6564,264.1241 536.1074,258.2751 534.5874,254.9121" id="Fill-17" fill="#6DBD40"></path>
                <path d="M529.8354,293.6426 C529.8354,293.6426 526.7264,285.0836 518.8774,282.3776 C511.0284,279.6726 509.9404,275.0566 509.8804,272.0696 C509.8204,269.0806 511.4534,260.3126 507.6824,255.8276 C503.9094,251.3396 508.7824,240.4306 508.7824,240.4306 C508.7824,240.4306 509.0904,253.2336 513.3144,257.7686 C517.5384,262.3046 515.9454,264.8276 517.2114,269.4286 C518.4774,274.0306 528.9114,279.8636 529.7444,285.7836 C530.5784,291.7036 529.8354,293.6426 529.8354,293.6426" id="Fill-19" fill="#6DBD40"></path>
                <path d="M530.0024,289.4023 C530.0024,289.4023 528.6134,280.4303 521.4374,276.3823 C514.2614,272.3363 514.0904,267.6013 514.6104,264.6493 C515.1324,261.6983 518.4384,253.3573 515.6084,248.2763 C512.7784,243.1953 519.6794,233.3193 519.6794,233.3193 C519.6794,233.3193 517.4934,245.9733 520.7584,251.1813 C524.0224,256.3903 521.9674,258.5913 522.3184,263.3433 C522.6674,268.0963 531.7724,275.6783 531.4394,281.6503 C531.1074,287.6233 530.0024,289.4023 530.0024,289.4023" id="Fill-21" fill="#5FA532"></path>
                <path d="M596.0288,227.876 C596.0288,227.876 596.8588,217.933 604.4058,212.88 C611.9518,207.83 611.7728,202.629 610.9738,199.442 C610.1748,196.256 605.9138,187.408 608.6198,181.6 C611.3268,175.793 603.0088,165.574 603.0088,165.574 C603.0088,165.574 606.3788,179.242 603.2048,185.227 C600.0318,191.212 602.4498,193.446 602.4348,198.679 C602.4198,203.914 593.0338,213.001 593.8578,219.513 C594.6818,226.023 596.0288,227.876 596.0288,227.876" id="Fill-23" fill="#5FA532"></path>
                <path d="M595.7949,230.6421 C595.7949,230.6421 599.2719,219.2571 609.3059,215.1081 C619.3389,210.9591 620.4469,204.8661 620.3259,200.9721 C620.2049,197.0791 617.4969,185.8001 622.1069,179.6601 C626.7159,173.5191 619.6469,159.7141 619.6469,159.7141 C619.6469,159.7141 620.1009,176.3981 614.9059,182.6381 C609.7119,188.8781 611.9529,192.0331 610.6109,198.1221 C609.2699,204.2121 596.0799,212.6371 595.3909,220.4071 C594.6999,228.1761 595.7949,230.6421 595.7949,230.6421" id="Fill-25" fill="#6DBD40"></path>
                <path d="M600.5874,191.9126 C599.0664,188.5486 593.1514,179.8666 593.8254,172.4036 C594.5004,164.9426 584.8584,155.9996 584.8584,155.9996 C584.8584,155.9996 591.3324,170.4426 590.3204,178.2556 C589.3074,186.0696 591.9124,187.8306 593.3124,193.7796 C594.7104,199.7286 589.3914,213.0546 591.8294,220.1836 C594.2684,227.3146 595.8824,228.9866 595.8824,228.9866 C595.8824,228.9866 593.8874,217.4296 598.7734,209.2766 C603.6564,201.1236 602.1074,195.2756 600.5874,191.9126" id="Fill-27" fill="#6DBD40"></path>
                <path d="M595.8354,230.6426 C595.8354,230.6426 592.7264,222.0846 584.8774,219.3776 C577.0284,216.6726 575.9404,212.0566 575.8804,209.0696 C575.8204,206.0806 577.4534,197.3126 573.6824,192.8266 C569.9094,188.3396 574.7824,177.4306 574.7824,177.4306 C574.7824,177.4306 575.0904,190.2336 579.3144,194.7686 C583.5384,199.3046 581.9454,201.8276 583.2114,206.4286 C584.4774,211.0306 594.9114,216.8636 595.7444,222.7836 C596.5784,228.7026 595.8354,230.6426 595.8354,230.6426" id="Fill-29" fill="#6DBD40"></path>
                <path d="M596.0024,226.4023 C596.0024,226.4023 594.6134,217.4303 587.4374,213.3823 C580.2614,209.3363 580.0904,204.6013 580.6104,201.6493 C581.1324,198.6983 584.4384,190.3573 581.6084,185.2763 C578.7784,180.1953 585.6794,170.3193 585.6794,170.3193 C585.6794,170.3193 583.4934,182.9733 586.7584,188.1813 C590.0224,193.3913 587.9674,195.5913 588.3184,200.3443 C588.6674,205.0963 597.7724,212.6783 597.4394,218.6513 C597.1074,224.6233 596.0024,226.4023 596.0024,226.4023" id="Fill-31" fill="#5FA532"></path>
                <path d="M436,343 C436,343 464.486,306.15 501.413,297.829 C538.339,289.509 534.119,270.489 551,260.979 C567.88,251.47 559.44,231.262 584.761,225.319 C610.082,219.375 616.412,202.733 632.238,194.413 C648.063,186.092 657.559,216.998 654.394,222.941 C651.229,228.885 647.008,303.772 647.008,303.772 L647.008,343 L436,343 Z" id="Fill-33" fill="#A67C52"></path>
                <path d="M454,343 C454,343 480.145,312.922 514.036,306.13 C547.928,299.338 544.054,283.813 559.547,276.052 C575.041,268.29 567.294,251.795 590.534,246.944 C613.774,242.092 619.583,228.509 634.108,221.717 C648.633,214.925 657.348,240.152 654.443,245.003 C651.539,249.854 647.665,310.981 647.665,310.981 L647.665,343 L454,343 Z" id="Fill-35" fill="#754C24"></path>
                <path d="M346.665,343 C346.665,343 320.52,312.922 286.629,306.13 C252.737,299.338 256.611,283.813 241.118,276.052 C225.624,268.29 233.371,251.795 210.131,246.944 C186.892,242.092 181.082,228.509 166.557,221.717 C152.032,214.925 143.317,240.152 146.222,245.003 C149.126,249.854 153,310.981 153,310.981 L153,343 L346.665,343 Z" id="Fill-37" fill="#754C24"></path>
                <path d="M371.7881,342.0967 C371.7881,342.0967 373.1511,325.7607 385.5521,317.4567 C397.9501,309.1587 397.6571,300.6147 396.3441,295.3787 C395.0321,290.1437 388.0291,275.6057 392.4751,266.0627 C396.9241,256.5217 383.2571,239.7307 383.2571,239.7307 C383.2571,239.7307 388.7931,262.1877 383.5791,272.0217 C378.3661,281.8557 382.3381,285.5257 382.3131,294.1237 C382.2891,302.7257 366.8671,317.6577 368.2201,328.3557 C369.5741,339.0517 371.7881,342.0967 371.7881,342.0967" id="Fill-39" fill="#5FA532"></path>
                <path d="M371.4033,346.6416 C371.4033,346.6416 377.1163,327.9346 393.6033,321.1186 C410.0883,314.3016 411.9083,304.2886 411.7103,297.8916 C411.5113,291.4956 407.0613,272.9626 414.6353,262.8746 C422.2093,252.7866 410.5943,230.1016 410.5943,230.1016 C410.5943,230.1016 411.3393,257.5156 402.8043,267.7686 C394.2693,278.0216 397.9513,283.2046 395.7463,293.2096 C393.5433,303.2156 371.8723,317.0586 370.7393,329.8246 C369.6043,342.5896 371.4033,346.6416 371.4033,346.6416" id="Fill-41" fill="#6DBD40"></path>
                <path d="M379.2778,283.0068 C376.7778,277.4798 367.0608,263.2138 368.1668,250.9518 C369.2758,238.6928 353.4338,223.9998 353.4338,223.9998 C353.4338,223.9998 364.0718,247.7308 362.4078,260.5678 C360.7438,273.4048 365.0238,276.2998 367.3238,286.0728 C369.6218,295.8498 360.8818,317.7448 364.8868,329.4578 C368.8948,341.1748 371.5478,343.9218 371.5478,343.9218 C371.5478,343.9218 368.2688,324.9328 376.2968,311.5368 C384.3198,298.1418 381.7748,288.5318 379.2778,283.0068" id="Fill-43" fill="#6DBD40"></path>
                <path d="M371.4702,346.6426 C371.4702,346.6426 366.3612,332.5806 353.4652,328.1336 C340.5702,323.6896 338.7812,316.1056 338.6832,311.1966 C338.5842,306.2866 341.2672,291.8796 335.0712,284.5086 C328.8722,277.1366 336.8792,259.2116 336.8792,259.2116 C336.8792,259.2116 337.3852,280.2476 344.3242,287.6996 C351.2662,295.1526 348.6482,299.2966 350.7282,306.8576 C352.8082,314.4186 369.9522,324.0026 371.3212,333.7296 C372.6912,343.4546 371.4702,346.6426 371.4702,346.6426" id="Fill-45" fill="#6DBD40"></path>
                <path d="M371.7441,339.6758 C371.7441,339.6758 369.4621,324.9348 357.6711,318.2838 C345.8811,311.6348 345.6001,303.8548 346.4551,299.0048 C347.3131,294.1558 352.7441,280.4508 348.0951,272.1028 C343.4441,263.7558 354.7831,247.5268 354.7831,247.5268 C354.7831,247.5268 351.1921,268.3188 356.5561,276.8758 C361.9181,285.4358 358.5431,289.0518 359.1191,296.8608 C359.6921,304.6688 374.6521,317.1268 374.1051,326.9398 C373.5611,336.7518 371.7441,339.6758 371.7441,339.6758" id="Fill-47" fill="#5FA532"></path>
                <path d="M242.1289,342.0967 C242.1289,342.0967 240.7659,325.7607 228.3659,317.4567 C215.9669,309.1587 216.2609,300.6147 217.5729,295.3787 C218.8849,290.1437 225.8889,275.6057 221.4419,266.0627 C216.9929,256.5217 230.6599,239.7307 230.6599,239.7307 C230.6599,239.7307 225.1239,262.1877 230.3379,272.0217 C235.5509,281.8557 231.5789,285.5257 231.6039,294.1237 C231.6289,302.7257 247.0499,317.6577 245.6969,328.3557 C244.3429,339.0517 242.1289,342.0967 242.1289,342.0967" id="Fill-49" fill="#5FA532"></path>
                <path d="M242.5137,346.6416 C242.5137,346.6416 236.8007,327.9346 220.3137,321.1186 C203.8287,314.3016 202.0087,304.2886 202.2077,297.8916 C202.4057,291.4956 206.8557,272.9626 199.2827,262.8746 C191.7077,252.7866 203.3227,230.1016 203.3227,230.1016 C203.3227,230.1016 202.5777,257.5156 211.1127,267.7686 C219.6477,278.0216 215.9657,283.2046 218.1707,293.2096 C220.3737,303.2156 242.0447,317.0586 243.1787,329.8246 C244.3127,342.5896 242.5137,346.6416 242.5137,346.6416" id="Fill-51" fill="#6DBD40"></path>
                <path d="M234.6396,283.0068 C237.1396,277.4798 246.8566,263.2138 245.7496,250.9518 C244.6416,238.6928 260.4836,223.9998 260.4836,223.9998 C260.4836,223.9998 249.8456,247.7308 251.5096,260.5678 C253.1726,273.4048 248.8926,276.2998 246.5936,286.0728 C244.2956,295.8498 253.0356,317.7448 249.0306,329.4578 C245.0226,341.1748 242.3696,343.9218 242.3696,343.9218 C242.3696,343.9218 245.6486,324.9328 237.6206,311.5368 C229.5976,298.1418 232.1426,288.5318 234.6396,283.0068" id="Fill-53" fill="#6DBD40"></path>
                <path d="M242.4473,346.6426 C242.4473,346.6426 247.5563,332.5806 260.4513,328.1336 C273.3473,323.6896 275.1353,316.1056 275.2343,311.1966 C275.3323,306.2866 272.6503,291.8796 278.8463,284.5086 C285.0443,277.1366 277.0383,259.2116 277.0383,259.2116 C277.0383,259.2116 276.5323,280.2476 269.5933,287.6996 C262.6513,295.1526 265.2693,299.2966 263.1893,306.8576 C261.1093,314.4186 243.9653,324.0026 242.5963,333.7296 C241.2263,343.4546 242.4473,346.6426 242.4473,346.6426" id="Fill-55" fill="#6DBD40"></path>
                <path d="M242.1729,339.6758 C242.1729,339.6758 244.4549,324.9348 256.2459,318.2838 C268.0359,311.6348 268.3179,303.8548 267.4619,299.0048 C266.6049,294.1558 261.1739,280.4508 265.8229,272.1028 C270.4729,263.7558 259.1339,247.5268 259.1339,247.5268 C259.1339,247.5268 262.7249,268.3188 257.3609,276.8758 C251.9999,285.4358 255.3749,289.0518 254.7979,296.8608 C254.2249,304.6688 239.2649,317.1268 239.8119,326.9398 C240.3569,336.7518 242.1729,339.6758 242.1729,339.6758" id="Fill-57" fill="#5FA532"></path>
                <path d="M146,319 C146,319 166,318 198,328 C230,338 268,323 303,323 C338,323 409,336 440,331 C471,326 466,313 531,322 C596,331 650.785,315.667 650.785,315.667 L651.113,366.035 L146,366.035 L146,319 Z" id="Fill-59" fill="#F3E290"></path>
                <path d="M146,350.127 C146,350.127 166,349.789 198,353.171 C230,356.554 268,351.481 303,351.481 C338,351.481 409,355.877 440,354.186 C471,352.495 466,348.098 531,351.142 C596,354.186 650.785,349 650.785,349 L651.113,366.035 L146,366.035 L146,350.127 Z" id="Fill-61" fill="#E6D792"></path>
                <mask id="mask-2" fill="white">
                    <use xlink:href="#path-1"></use>
                </mask>
                <g id="Clip-64"></g>
                <polygon id="Fill-63" fill="#3C3C3B" mask="url(#mask-2)" points="144.297 366.035 152.821 366.035 152.821 131.009 144.297 131.009"></polygon>
                <polygon id="Fill-65" fill="#3C3C3B" mask="url(#mask-2)" points="646.523 366.035 655.046 366.035 655.046 131.009 646.523 131.009"></polygon>
                <polygon id="Fill-66" fill="#3C3C3B" mask="url(#mask-2)" points="142.113 399 657.887 399 657.887 361.052 142.113 361.052"></polygon>
                <path d="M657.8872,136.0132 L142.1132,136.0132 L142.1132,114.0392 C148.0862,108.9472 151.4372,106.0922 157.4102,101.0002 L642.5902,101.0002 C648.5632,106.0922 651.9122,108.9472 657.8872,114.0392 L657.8872,136.0132 Z" id="Fill-67" fill="#575756" mask="url(#mask-2)"></path>
                <polygon id="Fill-68" fill="#3C3C3B" mask="url(#mask-2)" points="148.887 131.009 651.113 131.009 651.113 116.274 148.887 116.274"></polygon>
                <path d="M203.5918,333.1768 C206.2668,320.5688 185.6348,330.1208 180.6668,324.0078 C179.1398,321.7148 178.7578,319.0398 181.0498,317.1298 C184.1068,314.8368 185.2528,318.2778 187.5448,317.8948 C194.4228,317.1298 193.2758,311.0168 187.1638,308.7238 C183.3418,307.5778 148.1918,311.7808 158.8888,297.6438 C164.2388,290.7668 169.2048,298.4078 173.4088,299.1728 C180.2858,299.9368 176.4648,293.4418 176.4648,288.8568 C176.4648,283.1258 181.4318,278.5408 184.1068,285.7998 C185.6348,289.2388 181.8138,294.9698 183.7248,298.4078 C184.8708,300.3198 196.3338,306.8148 197.8608,306.8148 C204.3568,305.6678 199.3888,296.8798 197.4788,294.2058 C194.4228,290.3848 190.2198,285.7998 198.2428,285.7998 C199.7718,285.7998 199.7718,291.5308 203.2108,287.7098 C204.3568,286.9468 203.5918,282.3618 203.2108,281.2148 C202.0648,275.8658 197.0968,272.4278 197.0968,266.6968 C197.4788,261.7298 201.6818,257.5258 206.6488,261.7298 C210.4688,264.7858 208.1768,268.6058 208.9418,272.4278 C210.8518,281.5968 212.7618,273.9558 218.4938,275.1028 C227.2808,277.3948 219.2578,282.7428 216.2008,284.6538 C211.6158,287.3278 209.7048,289.2388 209.7048,295.7348 C209.7048,303.3748 211.6158,301.4658 216.9648,300.3198 C222.6958,298.7898 226.8988,300.7008 220.7848,305.6678 C218.1118,307.5778 216.2008,305.6678 214.6728,309.1068 C212.7618,312.5458 213.9078,314.0728 216.9648,315.2208 C221.1678,316.7478 228.4268,312.5458 230.7198,309.1068 C233.0128,305.2858 230.3378,300.3198 231.8658,296.4978 C234.1578,291.9128 238.3608,291.9128 240.6538,296.1158 C241.7998,298.7898 240.6538,305.2858 239.5078,307.9598 C237.5968,313.3098 234.1578,313.6918 239.5078,316.3658 C242.1828,317.5128 249.4408,316.3658 245.6208,322.8618 C243.7098,326.6828 236.8328,325.1538 233.3938,324.3908 C223.4608,322.8618 214.6728,321.3328 215.4358,334.7058" id="Fill-69" fill="#E75671" mask="url(#mask-2)"></path>
                <path d="M299.9375,334.7051 C299.9375,334.7051 296.3895,317.7871 308.8055,317.2411 C321.2205,316.6951 336.0925,310.5571 332.5455,305.2341 C328.9985,299.9151 318.0835,308.5101 308.3955,310.9661 C298.7095,313.4221 314.6715,299.2321 327.3605,294.5931 C340.0495,289.9551 344.5515,273.0371 337.0475,268.9441 C329.5435,264.8511 329.6815,274.2651 321.0855,285.7261 C312.4895,297.1851 305.2585,298.8221 308.9415,287.2261 C312.6255,275.6291 320.5395,261.0301 315.2185,257.6191 C309.8975,254.2091 303.7585,270.0351 304.5765,285.5891 C305.3955,301.1421 303.5115,301.2501 298.6165,303.7621 C293.7225,306.2731 288.2045,300.0511 294.7525,284.6341 C301.3015,269.2171 301.4375,252.8441 296.6635,250.5251 C291.8885,248.2061 285.6125,253.2541 288.7505,271.9451 C291.8885,290.6371 288.0675,294.3201 285.7485,290.6371 C283.4295,286.9531 276.0615,261.4391 274.0145,253.6631 C271.9685,245.8871 245.0905,252.4351 264.7375,276.1761 C284.3845,299.9151 288.7505,306.4631 281.6555,302.9161 C274.5605,299.3681 254.7775,284.3811 251.3665,292.3521 C247.9565,300.3231 267.3295,307.2821 278.9275,309.3281 C290.5235,311.3751 294.8905,314.7861 291.6155,316.8321 C288.3405,318.8791 265.2835,306.3271 262.9635,313.8301 C260.6445,321.3351 281.5195,322.4261 288.7505,322.6991 C295.9805,322.9721 290.6605,334.7051 290.6605,334.7051" id="Fill-70" fill="#F15A29" mask="url(#mask-2)"></path>
                <path d="M425.5884,275.3154 C430.5824,272.0494 434.7374,262.0554 435.5944,259.4594 C435.6114,259.3774 435.6334,259.3004 435.6684,259.2264 C436.6654,257.2244 445.3584,259.5594 455.0894,264.4434 C464.8184,269.3264 471.9014,274.9104 470.9064,276.9144 C470.8694,276.9854 470.8224,277.0494 470.7674,277.1114 C469.2144,279.3594 463.7654,288.7064 464.1694,294.6804 C464.5844,300.8474 460.0194,304.7094 453.9834,310.1394 C447.9464,315.5674 447.0324,313.7624 444.6514,322.7584 C442.2714,331.7534 435.1294,332.3984 435.1294,332.3984 L413.0434,321.3124 C413.0434,321.3124 409.2624,315.1854 414.9874,307.8694 C420.7094,300.5514 418.7254,300.9034 419.4144,292.7894 C420.1044,284.6754 420.4344,278.6884 425.5884,275.3154" id="Fill-71" fill="#F15A29" mask="url(#mask-2)"></path>
                <path d="M437.4917,261.4736 C436.6287,263.2096 442.7657,268.0476 451.1967,272.2806 C459.6277,276.5116 467.1627,278.5356 468.0247,276.7996 C468.8877,275.0616 462.7507,270.2246 454.3187,265.9926 C445.8867,261.7606 438.3537,259.7386 437.4917,261.4736" id="Fill-72" fill="#8F291A" mask="url(#mask-2)"></path>
                <path d="M416.6919,288.7002 C413.3389,284.0272 413.0819,273.6252 413.2169,271.0012 C413.2329,270.9222 413.2389,270.8462 413.2329,270.7672 C413.0369,268.6262 404.3999,267.6692 393.9429,268.6302 C383.4879,269.5912 375.1699,272.1042 375.3669,274.2472 C375.3749,274.3242 375.3949,274.3992 375.4239,274.4732 C376.0349,277.0282 377.6789,287.3042 375.2319,292.5102 C372.7099,297.8852 375.4669,302.9392 379.0079,309.9152 C382.5459,316.8892 383.9969,315.5942 383.0009,324.4782 C382.0049,333.3612 388.2059,336.4442 388.2059,336.4442 L411.9409,334.2622 C411.9409,334.2622 417.4759,330.1022 414.8799,321.5502 C412.2839,312.9942 413.9429,314.0052 416.1529,306.5022 C418.3619,298.9992 420.1529,293.5232 416.6919,288.7002" id="Fill-73" fill="#F7941E" mask="url(#mask-2)"></path>
                <path d="M410.8091,272.1396 C410.9811,273.9966 403.7741,276.1756 394.7131,277.0086 C385.6531,277.8396 378.1681,277.0106 377.9981,275.1556 C377.8291,273.2986 385.0351,271.1186 394.0971,270.2856 C403.1561,269.4536 410.6391,270.2846 410.8091,272.1396" id="Fill-74" fill="#8F291A" mask="url(#mask-2)"></path>
                <path d="M450.7227,301.6934 C449.0567,297.3394 450.9977,289.1304 451.6427,287.0984 C451.6707,287.0404 451.6917,286.9824 451.7017,286.9214 C451.9887,285.1994 445.4137,282.6724 437.0167,281.2724 C428.6207,279.8744 421.5827,280.1344 421.2947,281.8534 C421.2837,281.9154 421.2847,281.9764 421.2907,282.0434 C421.2437,284.1724 420.4187,292.5684 417.4307,296.1464 C414.3457,299.8394 415.4677,304.3744 416.8057,310.5714 C418.1447,316.7684 419.5487,316.0514 416.9407,322.8144 C414.3307,329.5754 418.5607,333.2674 418.5607,333.2674 L437.6197,336.4444 C437.6197,336.4444 442.8167,334.3214 442.5417,327.0804 C442.2647,319.8364 443.3617,320.9704 446.6387,315.5424 C449.9127,310.1134 452.4457,306.1884 450.7227,301.6934" id="Fill-75" fill="#F7941E" mask="url(#mask-2)"></path>
                <path d="M449.522,287.4971 C449.273,288.9871 443.172,289.2131 435.897,288.0021 C428.621,286.7881 422.922,284.5981 423.171,283.1071 C423.418,281.6161 429.519,281.3911 436.795,282.6021 C444.071,283.8151 449.769,286.0071 449.522,287.4971" id="Fill-76" fill="#8F291A" mask="url(#mask-2)"></path>
                <path d="M435.8716,303.4736 C433.0626,299.9936 433.7366,292.7096 434.0976,290.8846 C434.1196,290.8316 434.1326,290.7776 434.1326,290.7246 C434.1326,289.2146 425.9276,287.9916 415.8056,287.9916 C405.6846,287.9916 397.4796,289.2146 397.4796,290.7246 C397.4796,290.7776 397.4936,290.8316 397.5156,290.8846 C397.8756,292.7096 398.5476,299.9936 395.7406,303.4736 C392.8426,307.0656 395.0466,310.7766 397.8286,315.8746 C400.6106,320.9766 402.1146,320.1636 400.3766,326.3076 C398.6396,332.4516 404.3186,334.9996 404.3186,334.9996 L427.2926,334.9996 C427.2926,334.9996 432.9736,332.4516 431.2346,326.3076 C429.4946,320.1636 431.0026,320.9766 433.7846,315.8746 C436.5646,310.7766 438.7686,307.0656 435.8716,303.4736" id="Fill-77" fill="#FBB040" mask="url(#mask-2)"></path>
                <path d="M431.687,291.5264 C431.687,292.8344 424.577,293.8934 415.806,293.8934 C407.037,293.8934 399.926,292.8344 399.926,291.5264 C399.926,290.2174 407.037,289.1594 415.806,289.1594 C424.577,289.1594 431.687,290.2174 431.687,291.5264" id="Fill-78" fill="#8F291A" mask="url(#mask-2)"></path>
                <path d="M618.4575,279.2871 C615.5845,286.0791 621.1885,294.4281 618.4875,301.3041 C617.0155,305.0531 613.3105,307.5451 612.3955,311.4941 C612.0045,313.1841 612.1795,314.9621 612.3055,316.6981 C612.5485,320.0041 612.6035,323.3891 611.7425,326.5751 C610.8825,329.7601 608.9875,332.7531 606.2015,334.1581 C604.7785,334.8751 603.4365,335.1361 602.1985,335.0361 C601.6095,334.9911 601.0485,334.8641 600.5115,334.6671 C595.9995,333.0171 593.3185,326.4541 593.9845,321.2571 C594.4225,317.8331 595.5215,314.5091 597.1855,311.5551 C598.9795,308.3711 601.4955,305.4211 601.8895,301.7201 C602.1115,299.6411 601.6235,297.5571 601.4725,295.4721 C601.1955,291.6971 602.0555,287.8351 603.8895,284.6051 C605.2415,282.2241 607.1385,280.1021 607.7495,277.3871 C608.4925,274.0681 607.1565,270.5351 607.8195,267.1951 C608.1785,265.4061 609.0875,263.8061 610.0835,262.3221 C611.2395,260.6001 612.6975,258.8761 614.6405,258.5111 C616.5155,258.1561 618.4365,259.2011 619.6915,260.7441 C620.9445,262.2861 621.6335,264.2621 622.1795,266.2271 C622.6365,267.8761 623.0135,269.6191 622.7125,271.3141 C622.1765,274.3461 619.6485,276.4761 618.4575,279.2871" id="Fill-79" fill="#F65971" mask="url(#mask-2)"></path>
                <path d="M612.1396,293.2148 C612.3566,295.7398 612.4746,298.4388 611.8486,301.0468 C611.2326,303.6158 609.9096,305.6728 608.1086,307.9668 C606.1846,310.4208 604.5186,312.6928 603.6306,315.6578 C602.6696,318.8688 602.9206,322.0268 603.3206,325.5258 C603.7146,328.9598 603.4876,331.5948 602.5856,334.0608 C602.4656,334.3908 602.3366,334.7158 602.1986,335.0358 C601.6096,334.9908 601.0486,334.8638 600.5116,334.6668 C601.0406,333.5178 601.4566,332.3188 601.6886,331.0478 C602.0706,328.9548 601.8106,326.8208 601.5586,324.7598 C601.4026,323.4768 601.2396,322.1458 601.2306,320.8318 C601.1896,314.8148 604.0176,310.3938 606.7896,306.8568 C608.6916,304.4298 610.0436,302.2358 610.4556,299.4078 C610.8326,296.8138 610.5536,294.1448 610.2866,291.5658 L610.2396,291.1048 C609.9856,288.6528 609.7226,286.1138 609.9126,283.6098 C610.0956,281.1928 610.8156,278.8268 612.1856,276.1558 C612.3936,275.7468 612.6156,275.3258 612.8416,274.8958 C614.9256,270.9468 617.5206,266.0338 614.6636,261.8918 C614.3946,261.4988 614.5266,261.0898 614.7656,260.8768 C615.0286,260.6418 615.4556,260.5908 615.7656,260.9538 C619.2886,265.0618 617.0796,270.6268 614.4516,275.5268 C612.8256,278.5628 611.7086,281.2238 611.5536,284.3568 C611.4456,286.5358 611.6796,288.7478 611.9066,290.8878 C611.9876,291.6488 612.0726,292.4398 612.1396,293.2148" id="Fill-80" fill="#FD879B" mask="url(#mask-2)"></path>
                <path d="M583.7031,333.8975 C583.1571,334.0135 582.5921,334.0665 582.0141,334.0465 C581.1531,334.0275 580.2661,333.8495 579.3771,333.5005 C577.1321,332.6115 575.4631,330.2345 575.2831,327.6635 C575.1811,326.2245 575.5051,324.7415 575.1411,323.3515 C574.5661,321.1485 572.5081,319.8825 571.0031,318.2665 C567.9561,314.9965 567.1401,309.5565 569.0781,305.4175 C569.5071,304.5025 570.0591,303.6375 570.2971,302.6445 C570.9461,299.9525 569.1781,297.3635 567.7261,295.0625 C565.3011,291.2245 563.5041,286.1285 565.5521,282.0455 C566.0541,281.0495 566.7631,280.1685 567.1061,279.0955 C568.1991,275.6725 565.2171,271.6265 566.8491,268.4595 C567.7701,266.6715 569.9941,265.9605 571.8071,266.5645 C573.6191,267.1705 574.9951,268.8595 575.7061,270.7545 C576.4211,272.6495 576.5461,274.7425 576.5041,276.7865 C576.4631,278.8675 576.2721,281.0365 577.0151,282.9565 C577.9951,285.4835 580.3861,287.0475 581.6791,289.4055 C583.0991,291.9975 583.0261,295.2165 582.6491,298.1985 C582.4791,299.5515 582.2571,300.9305 582.4841,302.2725 C583.2401,306.6795 588.5191,309.2265 588.5981,313.7105 C588.6161,314.8065 588.2991,315.8815 588.2781,316.9785 C588.2311,319.2985 589.4761,321.4025 589.9241,323.6725 C590.9051,328.6475 587.8311,333.0355 583.7031,333.8975" id="Fill-81" fill="#F65971" mask="url(#mask-2)"></path>
                <path d="M583.7031,333.8975 C583.1571,334.0135 582.5921,334.0665 582.0141,334.0465 C581.6261,333.3115 581.3101,332.5385 581.0901,331.7145 C580.3631,329.0105 581.0451,326.2975 581.4881,323.6135 C581.9431,320.8385 581.7421,318.4645 579.8291,316.4005 C578.4901,314.9545 576.8631,313.7995 575.8061,312.0695 C572.9781,307.4325 577.2161,302.2525 576.2591,297.3065 C575.2801,292.2565 570.0721,289.5745 570.2161,284.0985 C570.2891,281.3095 571.3361,278.6925 571.5871,275.9345 C571.7861,273.7265 571.5031,270.8955 569.8811,269.3225 C569.7981,269.2375 569.9081,269.0935 570.0041,269.1535 C574.7261,272.1395 571.6441,278.4215 571.3491,282.8725 C571.1451,285.9615 572.4391,288.1625 574.2241,290.4205 C575.7021,292.2985 577.0491,294.2275 577.5901,296.6695 C578.1651,299.2835 577.7101,301.7225 577.0301,304.2465 C576.3011,306.9545 575.7091,309.6375 577.5751,311.9675 C578.8531,313.5725 580.5751,314.6915 581.7831,316.3725 C583.1171,318.2245 583.3871,320.4295 583.1221,322.7055 C582.8191,325.3135 581.9041,327.9815 582.4011,330.6245 C582.6231,331.8165 583.0941,332.8995 583.7031,333.8975" id="Fill-82" fill="#FD879B" mask="url(#mask-2)"></path>
                <path d="M600.4048,320.4678 C600.2678,322.3638 600.6578,324.2708 600.5138,326.1648 C600.2148,330.0588 596.8998,333.3968 593.2938,334.5648 C592.6788,334.7628 592.0548,334.9018 591.4338,334.9648 C588.7208,335.2478 586.1078,334.1638 584.7318,331.0288 C583.8388,328.9948 583.8508,326.6228 584.2568,324.4148 C584.7188,321.9048 585.6678,319.4318 585.4488,316.8808 C585.1998,313.9808 583.4858,311.5038 582.5118,308.7848 C581.2288,305.2038 581.2758,301.0918 582.6368,297.5458 C583.4108,295.5238 584.5998,293.6618 585.0308,291.5218 C586.0868,286.3098 582.4408,280.8708 583.8288,275.7528 C584.5038,273.2738 586.2918,271.2508 586.8288,268.7338 C587.3038,266.5098 586.7418,264.2038 586.4698,261.9398 C586.1738,259.4398 586.2328,256.8888 586.6518,254.4048 C586.9198,252.8268 587.3788,251.1888 588.4838,250.1178 C590.5498,248.1158 593.9958,249.0248 596.0068,251.0938 C598.4668,253.6308 599.4588,257.4038 599.8678,261.0478 C600.2738,264.6888 600.2018,268.4068 601.0098,271.9748 C601.9628,276.1778 604.1228,280.1138 604.2068,284.4428 C604.3288,290.8218 599.9078,296.6538 600.4738,303.0068 C600.7448,306.0788 602.1838,308.9868 602.0968,312.0718 C602.0118,314.9428 600.6138,317.6048 600.4048,320.4678" id="Fill-83" fill="#FD879B" mask="url(#mask-2)"></path>
                <path d="M593.5342,286.9756 C592.7472,290.0386 592.4572,293.2286 592.6732,296.3946 C592.8882,299.5376 593.8182,302.4986 594.3302,305.5806 C594.7802,308.3136 594.6772,310.8686 593.9462,313.5266 C593.1352,316.4706 592.2922,319.1056 592.6982,322.2246 C593.0502,324.9136 593.8562,327.5316 593.8872,330.2676 C593.9022,331.6876 593.5432,333.1306 593.2942,334.5646 C592.6792,334.7626 592.0552,334.9016 591.4332,334.9646 C591.6862,333.3126 592.1172,331.6576 592.0672,329.9776 C591.9732,326.7576 590.8312,323.6856 590.7532,320.4616 C590.6842,317.6416 591.6862,315.1116 592.3732,312.4426 C593.2222,309.1346 592.6602,306.0416 591.9322,302.7816 C590.6502,297.0276 590.4312,291.3066 592.0952,285.5996 C592.9412,282.6926 593.9552,279.9466 593.9592,276.8506 C593.9592,274.0746 593.4002,271.3446 592.7632,268.6696 C592.1422,266.0486 591.4082,263.4546 590.9552,260.7886 C590.5562,258.4366 590.1352,255.5966 590.9552,253.3086 C591.1832,252.6656 591.9612,252.7996 592.0332,253.4626 C592.1982,255.0036 592.0672,256.5586 592.2292,258.1036 C592.3912,259.6786 592.6692,261.2336 593.0102,262.7746 C593.6682,265.7696 594.5362,268.7096 595.0922,271.7326 C595.5292,274.1276 595.7752,276.5836 595.5262,279.0206 C595.2422,281.7836 594.2112,284.3206 593.5342,286.9756" id="Fill-84" fill="#F65971" mask="url(#mask-2)"></path>
                <path d="M486.6362,332.1973 C484.3242,329.7573 483.2892,326.3893 482.5982,323.0993 C481.9072,319.8093 481.4712,316.4183 480.0662,313.3643 C476.9792,306.6573 469.4422,301.9853 468.7792,294.6323 C468.7372,294.1753 468.7352,293.6793 468.9922,293.3013 C469.2672,292.8993 469.7752,292.7223 470.2602,292.6763 C472.0292,292.5033 473.6652,293.7183 474.7012,295.1643 C475.7372,296.6083 476.3622,298.3083 477.3332,299.7983 C478.9442,302.2673 481.4242,304.0393 483.2462,306.3563 C486.4222,310.3953 487.3522,315.7193 489.6232,320.3283 C489.7902,320.6663 489.9852,321.0223 490.3232,321.1893 C491.0352,321.5433 491.8232,320.8583 492.2432,320.1833 C494.4112,316.7093 493.7432,312.0783 491.8202,308.4623 C489.8972,304.8443 486.9022,301.9413 484.2552,298.8153 C481.6072,295.6903 479.1962,292.0863 478.8482,288.0053 C480.3562,286.5783 482.7162,288.2703 484.0492,289.8633 C485.6132,291.7323 487.1782,293.6013 488.7422,295.4713 C489.4702,296.3423 490.6232,297.2983 491.5942,296.7113 C492.0912,296.4113 492.3022,295.8023 492.4072,295.2323 C492.9992,292.0123 491.3542,288.7893 489.2972,286.2413 C487.2412,283.6943 484.7162,281.5063 483.0312,278.6993 C481.0522,275.4023 480.3812,271.5043 479.8222,267.6993 C479.5002,265.5163 479.6882,262.5643 481.8332,262.0513 C483.8472,261.5703 485.3642,263.8103 486.2172,265.6983 C487.8112,269.2273 489.4062,272.7563 491.0002,276.2853 C491.4402,277.2603 492.1522,278.4033 493.2162,278.2983 C494.5122,278.1713 494.8112,276.4283 494.7432,275.1273 C494.4412,269.3453 493.8912,263.5773 493.0962,257.8433 C492.9302,256.6433 492.7602,255.3813 493.2032,254.2543 C493.6462,253.1273 494.9432,252.2363 496.0692,252.6833 C496.7812,252.9673 497.2192,253.6773 497.5472,254.3703 C498.6722,256.7423 499.0902,259.3773 499.4942,261.9703 C500.2222,266.6393 500.9532,271.3653 500.5222,276.0703 C500.2382,279.1713 499.4522,282.2103 499.1872,285.3123 C498.9412,288.2003 499.1482,291.1043 499.3562,293.9943 C499.6422,297.9793 499.9282,301.9643 500.2152,305.9483 C500.2612,306.5793 500.3262,307.2613 500.7492,307.7323 C501.4652,308.5303 502.8692,308.2543 503.5802,307.4523 C504.2902,306.6503 504.4852,305.5283 504.6262,304.4663 C505.4872,297.9903 505.4202,291.3923 504.4272,284.9353 C503.9962,282.1363 503.4332,279.0893 504.8182,276.6183 C505.1132,276.0933 505.5382,275.5803 506.1272,275.4473 C507.5362,275.1293 508.3442,276.9843 508.5702,278.4113 C508.8662,280.2813 509.1632,282.1513 509.4592,284.0213 C509.7082,285.5913 510.5952,287.6313 512.1452,287.2813 C513.1932,287.0453 513.6312,285.8143 513.8462,284.7623 C515.2382,277.9923 514.8232,270.8593 512.6582,264.2963 C511.5672,260.9893 510.0262,257.7453 509.9012,254.2653 C509.8712,253.4223 509.9642,252.4873 510.5732,251.9013 C511.3242,251.1793 512.6122,251.3093 513.4462,251.9323 C514.2812,252.5563 514.7552,253.5453 515.1262,254.5183 C516.8812,259.1193 517.0512,264.2393 519.0892,268.7203 C519.8252,270.3403 520.8002,271.8603 521.3112,273.5633 C522.2272,276.6153 521.5632,279.8913 520.8952,283.0073 C520.3662,285.4703 519.8082,288.0053 518.3822,290.0813 C517.1202,291.9173 515.2512,293.2823 514.0662,295.1683 C511.8092,298.7563 512.4322,303.4793 510.7422,307.3663 C509.6352,309.9123 507.5952,311.9553 506.4232,314.4703 C505.2502,316.9863 505.2882,320.5093 507.6442,321.9763 C508.7012,322.6343 510.0292,322.7353 511.2562,322.5233 C515.8052,321.7383 518.8372,316.9393 518.9612,312.3243 C519.1152,306.5853 515.7762,300.8133 517.4632,295.3253 C517.7192,294.4903 518.1892,293.6003 519.0302,293.3663 C520.6542,292.9153 521.6592,295.0763 521.9442,296.7363 C522.1712,298.0653 522.3982,299.3933 522.6262,300.7213 C522.7032,301.1713 522.7922,301.6473 523.0992,301.9833 C523.6562,302.5943 524.7122,302.4543 525.3342,301.9113 C525.9572,301.3683 526.2542,300.5513 526.5282,299.7723 C527.9522,295.7103 529.3942,291.5463 529.3532,287.2413 C529.2712,278.6353 523.2932,270.7503 523.9212,262.1673 C523.9822,261.3363 524.1292,260.4573 524.6822,259.8343 C525.6162,258.7833 527.3942,258.9133 528.5192,259.7563 C529.6442,260.5983 530.2602,261.9453 530.7692,263.2573 C532.7192,268.2883 533.7562,273.6733 533.8132,279.0683 C536.3702,279.6023 537.0962,274.8403 539.6892,274.5193 C541.1242,274.3433 542.3452,275.7813 542.4872,277.2193 C542.6282,278.6573 542.0062,280.0493 541.3992,281.3603 C539.4802,285.5043 537.5602,289.6473 535.6412,293.7913 C534.1362,297.0413 532.6222,300.3053 530.6392,303.2903 C527.8952,307.4203 524.1262,311.3773 523.9752,316.3333 C523.8962,318.9343 526.0502,322.1073 528.4582,321.1213 C529.3502,320.7563 529.9422,319.9153 530.4532,319.0983 C532.4972,315.8363 534.0792,312.2853 535.1392,308.5843 C536.2892,304.5683 536.8852,300.2473 539.3062,296.8433 C539.6992,296.2923 540.1632,295.7513 540.7952,295.5093 C542.3502,294.9173 544.0122,296.5483 544.1532,298.2063 C544.2932,299.8653 543.4492,301.4263 542.7112,302.9173 C540.7612,306.8543 539.3812,311.0723 538.6262,315.4003 C537.9902,319.0463 537.7582,322.8843 535.9342,326.1043 C534.0322,329.4623 530.5862,331.7253 526.9362,332.9763 C523.2852,334.2283 519.3982,334.5793 515.5542,334.9203 C512.0322,335.2333 508.5102,335.5463 504.9882,335.8583 C500.0692,336.2963 490.2702,336.0343 486.6362,332.1973" id="Fill-85" fill="#93278F" mask="url(#mask-2)"></path>
            </g>
        </g>
    </g>
</svg>